<?xml version="1.0" encoding="UTF-8"?>
<!--
  Vlossom Care Icon: Treatment
  Meaning: Treatment phase - center emphasized (focused care)
  Visual: Emphasized center with nurturing elements
  Usage: TreatmentSuggestion
-->
<svg xmlns="http://www.w3.org/2000/svg" viewBox="0 0 24 24" fill="none">
  <defs>
    <style>
      .vlossom-icon { fill: none; stroke: #311E6B; stroke-width: 1.5; stroke-linecap: round; stroke-linejoin: round; }
      .vlossom-fill { fill: #311E6B; }
    </style>
  </defs>
  <!-- Emphasized treatment center -->
  <circle class="vlossom-fill" cx="12" cy="12" r="3"/>
  <!-- Treatment application - nurturing petals pointing inward -->
  <path class="vlossom-icon" d="M12 4v3"/>
  <path class="vlossom-icon" d="M12 17v3"/>
  <path class="vlossom-icon" d="M4 12h3"/>
  <path class="vlossom-icon" d="M17 12h3"/>
  <!-- Diagonal treatment points -->
  <path class="vlossom-icon" d="M6.5 6.5l2 2" opacity="0.6"/>
  <path class="vlossom-icon" d="M15.5 15.5l2 2" opacity="0.6"/>
  <path class="vlossom-icon" d="M6.5 17.5l2-2" opacity="0.6"/>
  <path class="vlossom-icon" d="M15.5 8.5l2-2" opacity="0.6"/>
  <!-- Nurturing petals around center -->
  <path class="vlossom-icon" d="M12 7.5c.8 0 1.2.8 1.2 1.5s-.4 1.2-1.2 1.2-1.2-.5-1.2-1.2.4-1.5 1.2-1.5z" opacity="0.4"/>
  <path class="vlossom-icon" d="M16.5 12c0 .8-.8 1.2-1.5 1.2s-1.2-.4-1.2-1.2.5-1.2 1.2-1.2 1.5.4 1.5 1.2z" opacity="0.4"/>
</svg>
