<?xml version="1.0" encoding="UTF-8"?>
<!--
  Vlossom Growth Icon: Stage 4
  Meaning: Flourishing - full bloom (complete growth)
  Visual: Full flower with all petals open
  Usage: ProfileGrowthSummary
-->
<svg xmlns="http://www.w3.org/2000/svg" viewBox="0 0 24 24" fill="none">
  <defs>
    <style>
      .vlossom-icon { fill: none; stroke: #311E6B; stroke-width: 1.5; stroke-linecap: round; stroke-linejoin: round; }
      .vlossom-fill { fill: #311E6B; }
    </style>
  </defs>
  <!-- Full vibrant center -->
  <circle class="vlossom-fill" cx="12" cy="12" r="2.5"/>
  <!-- Five full petals - flourishing -->
  <path class="vlossom-icon" d="M12 3c1.2 0 2 2 2 4s-.8 3-2 3-2-1-2-3 .8-4 2-4z"/>
  <path class="vlossom-icon" d="M19 8.5c.4 1-1 2.8-2.8 3.5s-3 .2-2.7-.8.8-1.8 2-2.5S18.6 7.5 19 8.5z"/>
  <path class="vlossom-icon" d="M17 17c-.7 1-2.5 1-3.8.2s-1.8-2.2-1.2-2.5 1.5.2 2.5.7S17.7 16 17 17z"/>
  <path class="vlossom-icon" d="M7 17c.7 1 2.5 1 3.8.2s1.8-2.2 1.2-2.5-1.5.2-2.5.7S6.3 16 7 17z"/>
  <path class="vlossom-icon" d="M5 8.5c-.4 1 1 2.8 2.8 3.5s3 .2 2.7-.8-.8-1.8-2-2.5S5.4 7.5 5 8.5z"/>
</svg>
