<?xml version="1.0" encoding="UTF-8"?>
<!--
  Vlossom Growth Icon: Stage 3
  Meaning: Maturing - three to four petals (strong progress)
  Visual: Multiple petals forming a bloom
  Usage: ProfileGrowthSummary
-->
<svg xmlns="http://www.w3.org/2000/svg" viewBox="0 0 24 24" fill="none">
  <defs>
    <style>
      .vlossom-icon { fill: none; stroke: #311E6B; stroke-width: 1.5; stroke-linecap: round; stroke-linejoin: round; }
      .vlossom-fill { fill: #311E6B; }
    </style>
  </defs>
  <!-- Strong center -->
  <circle class="vlossom-fill" cx="12" cy="12" r="2"/>
  <!-- Four petals - maturing stage -->
  <path class="vlossom-icon" d="M12 4c1 0 1.8 2 1.8 3.5S13 9.5 12 9.5s-1.8-.5-1.8-2S11 4 12 4z"/>
  <path class="vlossom-icon" d="M20 12c0 1-2 1.8-3.5 1.8S14.5 13 14.5 12s.5-1.8 2-1.8S20 11 20 12z"/>
  <path class="vlossom-icon" d="M12 20c-1 0-1.8-2-1.8-3.5S11 14.5 12 14.5s1.8.5 1.8 2S13 20 12 20z"/>
  <path class="vlossom-icon" d="M4 12c0-1 2-1.8 3.5-1.8S9.5 11 9.5 12s-.5 1.8-2 1.8S4 13 4 12z"/>
</svg>
