<?xml version="1.0" encoding="UTF-8"?>
<!--
  Vlossom Community Icon: Verified
  Meaning: Trust - symmetrical bloom (balance, authenticity)
  Visual: Perfectly balanced flower form
  Usage: Verification badges, trust indicators
-->
<svg xmlns="http://www.w3.org/2000/svg" viewBox="0 0 24 24" fill="none">
  <defs>
    <style>
      .vlossom-icon { fill: none; stroke: #311E6B; stroke-width: 1.5; stroke-linecap: round; stroke-linejoin: round; }
      .vlossom-fill { fill: #311E6B; }
    </style>
  </defs>
  <!-- Perfect symmetrical center -->
  <circle class="vlossom-fill" cx="12" cy="12" r="2.5"/>
  <!-- Six perfectly balanced petals - trust/verification -->
  <path class="vlossom-icon" d="M12 4c.8 0 1.5 1.8 1.5 3.5S12.8 9.5 12 9.5s-1.5-.5-1.5-2S11.2 4 12 4z"/>
  <path class="vlossom-icon" d="M18 8c.2.8-1 2.2-2.3 2.8s-2.5.2-2.2-.5.8-1.5 1.8-2S17.8 7.2 18 8z"/>
  <path class="vlossom-icon" d="M18 16c-.2.8-1.5 1.5-2.8 1.5s-2-.8-1.7-1.3.8-1 1.8-1.2 2.5.2 2.7 1z"/>
  <path class="vlossom-icon" d="M12 20c-.8 0-1.5-1.8-1.5-3.5S11.2 14.5 12 14.5s1.5.5 1.5 2S12.8 20 12 20z"/>
  <path class="vlossom-icon" d="M6 16c.2.8 1.5 1.5 2.8 1.5s2-.8 1.7-1.3-.8-1-1.8-1.2-2.5.2-2.7 1z"/>
  <path class="vlossom-icon" d="M6 8c-.2.8 1 2.2 2.3 2.8s2.5.2 2.2-.5-.8-1.5-1.8-2S6.2 7.2 6 8z"/>
</svg>
