<?xml version="1.0" encoding="UTF-8"?>
<svg id="Layer_1" data-name="Layer 1" xmlns="http://www.w3.org/2000/svg" viewBox="0 0 2332.486784 1080">
  <defs>
    <style>
      .cls-1 {
        fill: #efe3d0;
      }

      .cls-2 {
        fill: #311e6b;
      }
    </style>
  </defs>
  <rect class="cls-1" x="1252.486784" width="1080" height="1080" rx="125.806452" ry="125.806452"/>
  <path class="cls-2" d="M1349.702915,487.43079l21.885453,58.755597c.558406,1.499144,2.678857,1.499128,3.237239-.000026l21.884373-58.755546c.251798-.676032,.897221-1.124374,1.618624-1.124374h28.446462c1.234255,0,2.070201,1.257085,1.59284,2.39529l-43.535706,103.805131c-.269121,.641683-.897007,1.05922-1.59284,1.05922h-20.065824c-.695839,0-1.323729-.417544-1.592846-1.059235l-43.534585-103.805131c-.477348-1.138203,.358598-2.395275,1.592846-2.395275h28.445349c.721393,0,1.366809,.44833,1.618615,1.124349Zm124.41884,104.408037v-103.805131c0-.953937,.773318-1.727255,1.727255-1.727255h25.147984c.953937,0,1.727255,.773318,1.727255,1.727255v78.712906c0,.953937,.773318,1.727255,1.727255,1.727255h31.129c.953937,0,1.727255,.773318,1.727255,1.727255v21.637714c0,.953937-.773318,1.727255-1.727255,1.727255h-59.731494c-.953937,0-1.727255-.773318-1.727255-1.727255Zm161.184977-107.483952c29.967663,0,54.085263,24.767736,54.085263,55.645125,0,30.879707-24.1176,55.645125-54.085263,55.645125s-54.085263-24.765418-54.085263-55.645125c0-30.877389,24.1176-55.645125,54.085263-55.645125Zm0,83.729596c14.107133,0,23.272772-11.116045,23.272772-28.084471,0-16.966108-9.165638-28.082153-23.272772-28.082153-14.105974,0-23.271613,11.116045-23.271613,28.082153,0,16.968426,9.165638,28.084471,23.271613,28.084471Zm112.759959-7.576245c.485073-.829534,1.56631-1.063823,2.371568-.539435,9.287122,6.047812,18.213673,9.154043,25.498269,9.154043,7.540879,0,11.116045-3.314417,11.116045-7.345027,0-4.419996-3.510269-7.085436-16.641619-12.740805-20.802024-8.972104-28.863243-17.6823-28.863243-31.333991,0-16.90121,14.822167-33.348136,38.87371-33.348136,10.791247,0,23.334169,3.276051,31.143761,8.384261,.719384,.470545,.946901,1.42066,.567733,2.192125l-9.864153,20.069862c-.429995,.874878-1.48598,1.20201-2.352708,.755815-6.492239-3.34223-13.984162-5.398952-19.754224-5.398952-6.69605,0-10.530807,2.795236-10.530807,6.566255,0,3.314417,2.989929,5.460676,15.665836,10.594546,19.111208,7.736731,33.217182,15.668154,33.217182,33.674943,0,21.645694-16.317131,34.451397-41.473094,34.451397-15.74683,0-31.193805-4.984021-40.451277-12.703766-.644069-.537085-.779088-1.47372-.355764-2.197654l11.832785-20.23548Zm127.376763,0c.485073-.829533,1.56631-1.063822,2.371567-.539435,9.287119,6.047812,18.213615,9.154044,25.49711,9.154044,7.542038,0,11.116045-3.314417,11.116045-7.345027,0-4.419996-3.50911-7.085436-16.641619-12.740805-20.802024-8.972104-28.860925-17.6823-28.860925-31.333991,0-16.90121,14.819849-33.348136,38.87371-33.348136,10.790148,0,23.334059,3.276052,31.143754,8.384262,.719389,.470542,.946906,1.420662,.567737,2.192128l-9.864156,20.069867c-.429993,.874874-1.485964,1.202005-2.352691,.75582-6.492402-3.342239-13.985411-5.398968-19.756553-5.398968-6.693732,0-10.529649,2.795236-10.529649,6.566255,0,3.314417,2.989929,5.460676,15.665836,10.594546,19.112367,7.736731,33.218341,15.668154,33.218341,33.674943,0,21.645694-16.317131,34.451397-41.474253,34.451397-15.747944,0-31.193891-4.984021-40.451281-12.703765-.644064-.537086-.779085-1.473718-.355762-2.19765l11.832788-20.235485Zm171.369037-76.15335c29.968821,0,54.085263,24.767736,54.085263,55.645125,0,30.879707-24.116441,55.645125-54.085263,55.645125-29.966504,0-54.085263-24.765418-54.085263-55.645125,0-30.877389,24.118759-55.645125,54.085263-55.645125Zm0,83.729596c14.105974,0,23.272772-11.116045,23.272772-28.084471,0-16.966108-9.166797-28.082153-23.272772-28.082153s-23.272772,11.116045-23.272772,28.082153c0,16.968426,9.166797,28.084471,23.272772,28.084471Zm109.528318-81.77803h27.643856c.712925,0,1.352601,.438014,1.610386,1.102701l19.542838,50.39034c.570201,1.470239,2.650494,1.470277,3.220749,.000058l19.544982-50.390456c.257801-.664656,.897461-1.102642,1.610363-1.102642h27.643902c.901324,0,1.651126,.693052,1.721919,1.591591l8.178437,103.805131c.079125,1.004301-.714505,1.862919-1.721919,1.862919h-25.100773c-.916805,0-1.673881-.716283-1.724609-1.631684l-2.559247-46.182431c-.104127-1.878999-2.711734-2.260374-3.349613-.489896l-16.991915,47.162223c-.246828,.685089-.896807,1.141788-1.625004,1.141788h-14.473897c-.72822,0-1.378214-.456727-1.625025-1.141847l-16.989948-47.162153c-.637813-1.770497-3.245427-1.389224-3.34963,.489766l-2.561159,46.182621c-.050764,.915371-.807827,1.631613-1.724605,1.631613h-25.098523c-1.007414,0-1.801044-.858618-1.721919-1.862919l8.178437-103.805131c.070793-.898539,.820596-1.591591,1.721919-1.591591Z"/>
</svg>