<?xml version="1.0" encoding="UTF-8"?>
<svg id="Layer_1" data-name="Layer 1" xmlns="http://www.w3.org/2000/svg" viewBox="0 0 2332.486784 1080">
  <defs>
    <style>
      .cls-1 {
        fill: #efe3d0;
      }
    </style>
  </defs>
  <path class="cls-1" d="M1349.729517,784.33408l21.884138,58.752067c.558372,1.499054,2.678696,1.499037,3.237045-.000026l21.883059-58.752016c.251783-.675992,.897167-1.124307,1.618527-1.124307h28.444753c1.23418,0,2.070077,1.257009,1.592744,2.395146l-43.533091,103.798894c-.269105,.641645-.896953,1.059157-1.592744,1.059157h-20.064619c-.695797,0-1.323649-.417519-1.592751-1.059171l-43.531969-103.798894c-.47732-1.138135,.358577-2.395131,1.592751-2.395131h28.44364c.72135,0,1.366727,.448303,1.618518,1.124281Zm124.411365,104.401764v-103.798894c0-.953879,.773272-1.727151,1.727151-1.727151h25.146473c.953879,0,1.727151,.773272,1.727151,1.727151v78.708177c0,.953879,.773272,1.727151,1.727151,1.727151h31.12713c.953879,0,1.727151,.773272,1.727151,1.727151v21.636414c0,.953879-.773272,1.727151-1.727151,1.727151h-59.727905c-.953879,0-1.727151-.773272-1.727151-1.727151Zm161.175294-107.477494c29.965862,0,54.082014,24.766248,54.082014,55.641782,0,30.877852-24.116151,55.641782-54.082014,55.641782s-54.082014-24.76393-54.082014-55.641782c0-30.875534,24.116151-55.641782,54.082014-55.641782Zm0,83.724566c14.106286,0,23.271373-11.115378,23.271373-28.082784,0-16.965088-9.165088-28.080466-23.271373-28.080466-14.105127,0-23.270215,11.115378-23.270215,28.080466,0,16.967406,9.165088,28.082784,23.270215,28.082784Zm112.753185-7.57579c.485044-.829484,1.566216-1.063759,2.371425-.539403,9.286564,6.047448,18.212578,9.153494,25.496737,9.153494,7.540426,0,11.115378-3.314218,11.115378-7.344585,0-4.41973-3.510058-7.08501-16.64062-12.74004-20.800774-8.971565-28.861509-17.681238-28.861509-31.332108,0-16.900195,14.821276-33.346133,38.871375-33.346133,10.790598,0,23.332767,3.275854,31.14189,8.383757,.71934,.470516,.946844,1.420575,.567699,2.191993l-9.863561,20.068656c-.429969,.874825-1.485891,1.201938-2.352566,.75577-6.491849-3.342029-13.983322-5.398628-19.753037-5.398628-6.695648,0-10.530175,2.795068-10.530175,6.56586,0,3.314218,2.989749,5.460348,15.664895,10.59391,19.11006,7.736266,33.215187,15.667213,33.215187,33.672919,0,21.644394-16.316151,34.449327-41.470603,34.449327-15.745884,0-31.191931-4.983722-40.448846-12.703002-.64403-.537052-.779041-1.473631-.355743-2.197522l11.832074-20.234264Zm127.36911,0c.485044-.829483,1.566216-1.063758,2.371425-.539403,9.286561,6.047449,18.21252,9.153494,25.495578,9.153494,7.541584,0,11.115378-3.314218,11.115378-7.344585,0-4.41973-3.508899-7.08501-16.64062-12.74004-20.800774-8.971565-28.859192-17.681238-28.859192-31.332108,0-16.900195,14.818958-33.346133,38.871375-33.346133,10.7895,0,23.332657,3.275855,31.141883,8.383759,.719345,.470514,.946849,1.420576,.567703,2.191997l-9.863563,20.068661c-.429967,.874821-1.485874,1.201933-2.35255,.755775-6.492012-3.342038-13.98457-5.398644-19.755366-5.398644-6.69333,0-10.529016,2.795068-10.529016,6.56586,0,3.314218,2.989749,5.460348,15.664895,10.59391,19.111219,7.736266,33.216345,15.667213,33.216345,33.672919,0,21.644394-16.316151,34.449327-41.471761,34.449327-15.746998,0-31.192017-4.983722-40.448851-12.703002-.644026-.537054-.779038-1.473629-.355741-2.197518l11.832077-20.234269Zm171.358741-76.148775c29.967021,0,54.082014,24.766248,54.082014,55.641782,0,30.877852-24.114993,55.641782-54.082014,55.641782-29.964703,0-54.082014-24.76393-54.082014-55.641782,0-30.875534,24.11731-55.641782,54.082014-55.641782Zm0,83.724566c14.105127,0,23.271373-11.115378,23.271373-28.082784,0-16.965088-9.166247-28.080466-23.271373-28.080466s-23.271373,11.115378-23.271373,28.080466c0,16.967406,9.166247,28.082784,23.271373,28.082784Zm109.521738-81.773117h27.642195c.712882,0,1.35252,.437988,1.610289,1.102634l19.541664,50.387312c.570167,1.470151,2.650335,1.470188,3.220555,.000058l19.543808-50.387429c.257785-.664616,.897407-1.102576,1.610266-1.102576h27.642241c.901269,0,1.651027,.69301,1.721816,1.591496l8.177945,103.798894c.079121,1.004241-.714463,1.862807-1.721816,1.862807h-25.099265c-.91675,0-1.67378-.71624-1.724505-1.631586l-2.559093-46.179656c-.10412-1.878886-2.711571-2.260238-3.349412-.489867l-16.990894,47.15939c-.246814,.685048-.896753,1.141719-1.624906,1.141719h-14.473027c-.728176,0-1.378131-.4567-1.624928-1.141779l-16.988927-47.15932c-.637775-1.77039-3.245232-1.389141-3.349429,.489737l-2.561005,46.179846c-.050761,.915316-.807779,1.631515-1.724501,1.631515h-25.097015c-1.007353,0-1.800936-.858566-1.721816-1.862807l8.177945-103.798894c.070788-.898485,.820546-1.591496,1.721816-1.591496Z"/>
  <g>
    <path class="cls-1" d="M1792.699763,386.772023c3.660265-3.873114,7.397327-7.514271,6.916558-13.479822-.159122-1.974386,.389634-4.193548,1.215532-6.030698,8.723011-19.403907,17.119454-38.997726,27.97831-57.329402,8.494899-14.340921,20.247246-25.986798,32.902774-36.689775,15.549649-13.150594,31.765618-25.324817,50.69757-33.342105,15.061589-6.378253,30.540062-11.443411,46.634365-14.486708,15.896449-3.005894,28.050125,3.389516,34.134497,18.3825,4.492786,11.071128,6.69431,22.696325,6.524889,34.693311-.087125,6.170334-1.850805,11.978676-4.712118,17.362992-10.497293,19.753626-22.606677,38.459051-37.754571,54.985612-4.439715,4.843758-9.758702,8.980786-15.073467,12.901109-8.934627,6.590425-18.267485,12.637984-27.287384,19.116433-10.494407,7.537511-22.157988,12.533223-34.353708,16.470269-6.972637,2.250893-13.581279,5.272173-19.689194,9.345877-.589038,.392827-1.166653,.802787-2.348981,1.618181,3.799672-.25234,6.886727-.485512,9.977184-.65823,31.418028-1.756085,62.639721-.598961,93.410507,6.630115,17.872717,4.19891,33.972033,12.454952,49.484863,22.021014,6.838698,4.217076,13.845359,8.161443,20.693201,12.364181,5.730342,3.516848,10.608083,7.906505,13.675756,14.081032,7.076896,14.243983-3.061902,30.661408-18.985661,30.657246-2.98474-.00079-5.970088-.09229-8.954039-.054226-4.033343,.051431-7.640324,1.314759-10.707663,3.999717-5.239396,4.586208-10.743571,8.90484-15.674018,13.801548-9.365666,9.301585-20.769755,11.804697-33.348273,10.903119-19.572845-1.402948-37.853241-7.801061-56.137858-14.349852-19.684577-7.050131-36.039406-19.135557-51.38877-32.860155-6.79228-6.073365-13.483704-12.259466-20.515305-18.662439,1.342696,5.972994,2.619075,11.624977,3.883061,17.279693,2.221756,9.93972,4.43455,19.881414,6.65339,29.821802,2.656988,11.903154,8.011609,22.779995,12.874313,33.844516,3.673358,8.358267,6.873664,16.870493,8.351361,25.936765,2.037329,12.499731,.19105,24.622826-3.874312,36.438247-5.677483,16.500997-13.125117,32.205677-22.325586,47.033538-4.605216,7.421966-10.441852,13.722199-18.521722,17.55702-7.067235,3.35414-14.018759,3.811096-21.184208-.079714-12.371185-6.717484-24.906095-13.132913-37.34785-19.721288-1.899107-1.005625-3.669212-2.255586-5.495152-3.398675-8.883257-5.561181-14.59004-13.371841-16.616266-23.715081-1.54974-7.91091-4.990688-14.998437-8.773561-22.048507-4.138224-7.712264-8.069495-15.588573-11.347554-23.694059-3.131073-7.742066-2.467563-15.676246,.889753-23.453703,7.547062-17.483291,15.014336-35.003097,22.295192-52.598607,5.50662-13.307682,10.676753-26.75465,15.98766-40.143199,.356415-.89851,.637005-1.827125,1.173458-3.380448-1.697774,.984542-2.825633,1.590506-3.905738,2.272143-17.817246,11.244393-36.834348,19.912947-56.846374,26.426894-10.856123,3.533678-20.811328,8.963076-30.807711,14.339098-7.251268,3.89965-14.737117,7.197619-23.092299,7.984913-9.386643,.884505-18.042236-1.552654-26.385418-5.578041-10.665187-5.145722-19.965547-12.394377-29.676677-19.0299-7.581447-5.180384-15.289378-10.224064-23.263884-14.761149-4.259631-2.423519-9.162746-3.760728-13.845465-5.386503-9.460872-3.284694-13.431704-10.171691-11.294756-19.96292,1.593096-7.299388,5.51019-13.377948,10.773416-18.418802,11.944653-11.439955,24.841317-21.731855,39.299527-29.858287,13.630584-7.661228,28.532109-11.41904,43.932349-13.41027,16.914529-2.187052,33.865754-2.574805,50.855765-1.00681,13.558283,1.251298,26.935343,3.516104,40.073371,7.128599,.543333,.149372,1.097481,.259449,2.30036,.54071-1.023722-1.482874-1.561162-2.692948-2.463614-3.489446-2.971268-2.622515-6.074074-5.096022-9.127515-7.625336-5.862442-4.856137-11.939447-9.478708-17.536413-14.623595-7.617692-7.002391-10.387536-16.518313-12.536247-26.254267-7.481247-33.898058-.967978-65.656736,14.884422-95.887587,3.724865-7.103384,5.239472-14.171659,3.100664-21.993772-.958743-3.506295-1.677496-7.105743-2.138079-10.709827-.253629-1.984756-.07584-4.16118,.475726-6.088562,2.331407-8.146892,17.505989-15.743174,25.690952-7.302858,7.301362,7.529142,16.409434,11.954479,24.810753,17.594788,23.227247,15.593852,40.010655,36.326058,49.940206,62.434971,4.970243,13.068807,5.64835,26.89484,5.114632,40.700246-.691322,17.880796-3.354658,35.427093-10.199888,52.156856-2.984254,7.293509-2.920824,14.99025-2.069044,22.739576Zm-131.509509-2.246624c-9.407589,.791288-18.84854,1.30727-28.214465,2.442309-12.201492,1.478667-24.216194,3.98032-35.365704,9.454223-16.014203,7.862244-29.752304,18.929696-42.723315,30.98046-4.411516,4.098539-7.802395,9.047377-8.975737,15.172477-.915072,4.776834,.513957,7.686564,5.139516,9.02763,14.248074,4.130801,26.510357,11.843187,38.455189,20.344628,9.238973,6.575616,18.701091,12.876274,28.379047,18.782982,6.417843,3.916996,13.625594,6.025336,21.332591,5.680083,7.299653-.326996,13.975941-2.833267,20.212949-6.350905,13.097944-7.387273,26.64605-13.710807,40.934493-18.425729,14.299729-4.718628,27.760376-11.227107,40.690494-18.913792,6.620794-3.935952,13.400057-7.605271,20.106928-11.396438,1.897998-1.072884,3.79955-1.069967,5.647318,.072939,1.951722,1.207218,1.679319,3.156587,1.294607,4.917821-.546098,2.499983-1.206813,5.004917-2.127674,7.388306-6.773035,17.530226-13.399054,35.122364-20.514971,52.513456-6.488131,15.856756-13.454282,31.520426-20.376886,47.195396-2.410968,5.459291-3.008132,10.969709-.82523,16.415298,2.6716,6.664777,5.648168,13.239846,8.974954,19.601596,4.531093,8.664696,9.541527,17.072541,11.366343,26.87425,1.741018,9.351558,7.054871,16.156533,15.31853,20.624081,13.186254,7.128872,26.495631,14.030603,39.658053,21.202613,5.470485,2.980755,10.484109,2.152845,15.502532-.827272,5.47571-3.251703,9.696427-7.83545,12.995705-13.154695,9.024304-14.549319,16.404771-29.939489,21.724184-46.202773,2.038726-6.233127,3.255047-12.869226,3.847973-19.412155,1.098392-12.120392-2.732964-23.366182-7.395626-34.380973-4.25553-10.053063-9.128077-19.958515-12.17084-30.383716-4.145226-14.202334-6.850303-28.82763-10.09809-43.288364-2.184056-9.724335-4.554697-19.363093-9.991948-27.917424-1.6778-2.639633-1.556621-4.644261,.313809-6.200773,2.104343-1.751179,4.312368-1.485061,6.616723,.68273,12.07609,11.360591,24.036923,22.848529,36.297805,34.006464,10.064886,9.159504,20.499296,18.048213,32.933486,23.820009,10.037394,4.659299,20.440149,8.626298,30.910435,12.234069,12.933794,4.456673,26.149621,7.853039,39.99662,8.293196,9.79865,.311473,18.215963-2.287028,25.267219-9.343721,4.152912-4.156137,8.887966-7.724902,13.134534-11.794398,6.740455-6.459296,14.783505-8.387977,23.805592-7.639204,2.278199,.189107,4.755741,.341608,6.874818-.33049,8.735314-2.770778,11.761855-11.360378,7.00903-19.158979-2.537631-4.163671-6.283077-7.038951-10.333887-9.510834-6.293193-3.840198-12.85478-7.260685-19.006561-11.308917-22.888315-15.061898-47.978003-23.660339-75.173522-26.51083-29.815719-3.125115-59.577333-2.897487-89.319293,.823657-3.368936,.421504-6.739756,.859473-10.122545,1.127444-2.176796,.17246-3.995977-.706152-4.611353-2.954053-.605017-2.210109,.076706-4.130497,2.115978-5.351446,.915028-.547834,1.956066-.881923,2.927356-1.3397,7.022761-3.309939,14.294291-6.189609,20.998079-10.053761,8.082725-4.658949,16.344166-8.758004,25.193582-11.655522,11.096355-3.633244,21.495647-8.60646,31.027848-15.412164,8.702111-6.212986,17.678963-12.048303,26.266183-18.412408,5.171986-3.833014,10.316298-7.916272,14.631158-12.653857,14.085288-15.465266,25.304463-32.975093,35.055297-51.429135,3.564026-6.745159,5.174174-13.933703,3.953295-21.62057-1.338109-8.425077-2.366813-16.93469-5.9895-24.784562-4.586655-9.938634-11.778989-14.000566-22.599538-12.504591-4.403686,.608811-8.736377,1.860998-13.038964,3.046989-13.253739,3.653354-26.448727,7.515084-38.802202,13.706857-18.771797,9.408761-35.065383,22.297172-50.512444,36.326058-11.628798,10.561161-21.620016,22.470224-28.59642,36.648346-7.2009,14.634258-14.257868,29.341257-21.175155,44.111353-1.192657,2.546614-1.341997,5.574563-2.033136,8.365345-.727442,2.937299-.794851,6.38303-2.444035,8.67665-3.651395,5.078266-7.984542,9.695688-12.30092,14.253613-2.047961,2.162597-5.246687,1.430046-6.706795-1.251829-.859648-1.578947-1.573359-3.323321-1.924139-5.078934-1.878358-9.400939-1.891877-18.811492,.84051-28.048933,1.829358-6.18449,4.404719-12.15636,6.086255-18.374799,2.995039-11.075685,4.443269-22.426554,4.743347-33.900503,.446927-17.088885-1.229779-33.802768-9.357829-49.256498-7.089928-13.480035-16.383415-25.291924-27.39787-35.779531-8.489264-8.083192-18.857631-13.450488-28.5041-19.86957-3.27651-2.180293-6.502455-4.618906-9.17688-7.477152-3.643891-3.894299-6.56385-4.828618-12.656545-.699374-1.500071,1.01666-2.177176,2.412181-1.775208,4.279022,.662189,3.075488,1.048602,6.227089,1.930366,9.235496,2.897023,9.884157,1.431963,19.133089-3.454846,28.058199-5.030408,9.187399-8.603062,18.971109-11.672983,28.971511-7.075179,23.0477-7.597825,46.128246-.611062,69.270659,1.415513,4.688584,3.01524,9.437834,6.747092,12.840473,5.436172,4.956569,10.771443,10.146173,16.789256,14.31273,8.277967,5.731423,14.938344,12.498105,18.875357,21.85662,.979932,2.329376,2.494934,4.502833,.574486,6.91007-2.027471,2.541358-4.601115,1.543829-7.085751,.796529-22.273319-6.699135-45.003287-10.441591-68.332955-10.983364Z"/>
    <g>
      <path class="cls-1" d="M1780.383739,414.574086c.171962,.733948,.326624,1.39404,.519674,2.217976,.983518,.10427,2.087211,.21761,3.190008,.339109,1.346529,.148367,2.731511,.161908,4.020999,.518744,.597083,.165212,1.110087,.945094,1.469225,1.558668,.275849,.471272,.25118,1.118464,.325001,1.503849,.328319-.598196,.570179-1.549953,1.182114-2.028302,.819672-.640741,1.765991-.24865,2.423924,.595704,.825944-.570958,1.666782-.867621,2.493915-.187751,1.128362,.927452,.453157,2.073681,.261503,3.136329-.062202,.344861-.296039,.658796-.245926,1.171759,.951089-.545314,1.895863-1.102032,2.854862-1.633065,1.174275-.65021,2.165511-.429439,2.690966,.574531,.693957,1.325922,.412057,2.449853-.795864,3.040944-.671773,.328715-1.302652,.624851-1.448899,1.499662-.04629,.276857-.425157,.533396-.701091,.730089-.881112,.628112-.882721,1.378776,.16648,1.713399,2.613364,.833448,5.232267,1.922566,7.921766,2.19807,13.077813,1.339605,26.142341,1.342809,39.099252-1.304706,4.880611-.99725,9.621069-2.457243,14.192071-4.450234,.284079-.123877,.569026-.252068,.864581-.342213,.971201-.29625,1.692839,.058165,2.121071,.939455,.404368,.832209,.026983,1.846375-.920867,2.201673-3.41192,1.278934-6.796672,2.668688-10.286506,3.693746-7.681942,2.256406-15.592886,3.136401-23.573501,3.421246-6.917972,.246899-13.842608,.228816-20.714589-.626645-3.015639-.375418-5.957365-1.345301-8.931882-2.048493-.239625-.056642-.473298-.138429-.709748-.20854-.043799,.09436-.087611,.188734-.131424,.283094,.401421,.202731,.786481,.451352,1.206782,.601201,5.005742,1.78475,10.194822,2.791952,15.465292,3.212222,5.920543,.472113,11.862387,.882215,17.797596,.921372,11.37354,.075024,22.641841-1.148778,33.777835-3.506407,.227308-.048127,.454346-.11129,.684531-.129871,1.068495-.086258,1.839541,.426292,2.026753,1.331888,.189334,.915918-.397961,1.802519-1.471895,2.019361-2.662374,.537554-5.328237,1.066991-8.007569,1.509758-11.309636,1.869-22.703111,2.553141-34.147774,2.064725-8.852728-.377838-17.685722-1.05298-26.203183-3.812611-.13487-.043684-.286015-.037049-.482511-.060102-.05865,1.008826,.249507,1.689507,1.065662,2.29515,3.228125,2.395419,6.468367,4.783861,10.548002,5.465667,2.406417,.402186,4.852361,.658753,7.28999,.766298,7.412016,.327006,14.827279,.60187,22.243923,.795601,5.398648,.141034,10.803575,.23847,16.201852,.141034,5.628975-.101593,11.254077-.445116,16.878993-.72092,.941385-.046148,1.720135,.073315,2.122139,1.017056,.491624,1.154175-.225942,2.253701-1.609513,2.339717-4.225227,.262633-8.451906,.614243-12.681461,.670116-7.498218,.099087-15.002616,.147684-22.497716-.044382-8.501784-.217866-16.998784-.675512-25.491812-1.139808-1.945022-.10632-3.865241-.666157-5.892792-.802792,2.670647,1.122209,5.296598,2.369148,8.019644,3.345183,12.257899,4.393621,24.887175,6.929262,37.921346,7.346114,.271064,.008671,.543353,.033219,.811356,.074468,1.14715,.176617,1.724776,.835085,1.645324,1.861667-.071194,.920048-.76938,1.558625-1.853424,1.508177-2.715713-.126383-5.436281-.238413-8.140688-.501971-11.143854-1.086071-22.023136-3.416305-32.48169-7.442895-3.894815-1.49952-7.611944-3.460559-11.372999-5.194035,.047686,.130854,.168061,.498511,.313923,.855746,1.982043,4.854214,5.554791,8.187621,10.183631,10.42791,4.7843,2.31554,9.619176,4.527137,14.445935,6.753856,.877994,.40502,1.42018,.957439,1.286363,1.954176-.171393,1.276884-1.317788,1.783198-2.685284,1.176501-2.128105-.944111-4.248393-1.906547-6.35954-2.887992-2.568967-1.194271-5.11914-2.428951-7.68778-3.623891-7.401693-3.443287-11.934906-9.223729-13.94668-17.068141-.067464-.263031-.143271-.524041-.221392-.784139-.021244-.070752-.065157-.134684-.099764-.201207-.935618,3.770607-1.099265,8.859788,.352838,12.59316,.867543,2.230449,1.535543,4.547755,2.1426,6.865473,.227266,.867678,.109126,1.856854,.000441,2.773086-.11878,1.001265-.83552,1.482704-1.817742,1.399878-1.006051-.084848-1.59793-.744485-1.516626-1.724577,.172959-2.084944-.284342-4.044958-1.150966-5.881792-2.464775-5.224235-2.518462-10.651528-1.600052-16.199964,.687635-4.154225,.662141-4.15844-2.198153-7.709472-.389275,2.059514-.761535,3.985283-1.115939,5.914328-.533173,2.901975-1.07533,5.802682-1.559243,8.712987-.083133,.499949,.028001,1.069298,.185653,1.563082,.211041,.661003,.549533,1.282109,.843152,1.915774,.396031,.854678,.650906,1.737605-.154342,2.467993-.813051,.737451-1.699275,.577692-2.582665-.141405-1.245391,2.564304-2.461073,5.063879-3.673487,7.565049-.812453,1.676108-1.614561,3.357243-2.431869,5.030973-.686233,1.405288-1.572677,1.833104-2.635562,1.293344-.961035-.488017-1.113376-1.422118-.428553-2.840222,1.738197-3.599329,3.518319-7.178824,5.217316-10.796493,.657178-1.399336,1.169007-2.870251,1.683918-4.330814,.130691-.37069,.019585-.826628,.019585-1.251937-2.432467,3.273918-4.786222,6.449774-7.15188,9.616745-.324659,.434636-.678394,.856871-1.071499,1.229027-.699966,.662669-1.51474,.626375-2.233216,.092039-.755063-.561546-.894148-1.38561-.384669-2.17301,.461281-.712932,1.107851-1.30398,1.590967-2.005093,2.377861-3.450791,4.758001-6.900998,7.055526-10.405057,.327649-.499707,.345704-1.308323,.271705-1.946686-.28504-2.458781-.665672-4.90647-1.046966-7.616265-.483778,.565504-.96515,1.183663-1.502879,1.748142-5.167616,5.424702-9.402133,11.573598-13.726092,17.653451-2.296949,3.229707-4.585035,6.465793-6.898636,9.683511-.687927,.956769-1.717999,1.146258-2.534545,.548831-.765294-.559937-.8739-1.555663-.268857-2.495588,.104983-.163104,.222432-.318206,.334954-.476427,3.197903-4.496125,6.396098-8.992037,9.593588-13.488461,.336022-.472525,.667907-.947984,.860943-1.594919-.440691,.379917-.864716,.781405-1.324594,1.136462-6.059108,4.678238-12.115817,9.359637-18.191463,14.016304-1.493908,1.145019-3.137452,2.004438-5.053492,2.236586-1.187809,.143896-2.096936-.439449-2.239574-1.48746-.132094-.970609,.585863-1.641878,1.745295-1.933658,.958692-.24126,1.998724-.534877,2.761697-1.119717,6.936212-5.316801,13.821727-10.699798,20.715059-16.072428,.734161-.572182,1.423568-1.201775,2.133722-1.804741-.083511-.108029-.167021-.216072-.250532-.324101-.182463,.053466-.375955,.083567-.545824,.163717-10.411196,4.912094-20.233865,10.74193-28.843352,18.470396-.959202,.861043-2.006897,.836509-2.6817,.038971-.677177-.800343-.522454-1.779154,.455852-2.643144,7.469135-6.596604,15.685731-12.077548,24.622902-16.482346,1.459123-.71914,2.908976-1.457117,4.301903-2.342095-.32456,.135794-.645972,.279733-.974149,.40613-5.64678,2.175103-11.28652,4.368845-16.947169,6.50727-1.481385,.559609-2.451931,.179265-2.813932-.887256-.368657-1.086142,.222304-1.853138,1.748043-2.366002,2.893356-.972546,5.777721-1.97186,8.665823-2.960054-.027695-.095641-.055389-.191283-.083084-.28691-1.60359,.359029-3.204916,.728509-4.811118,1.07542-12.046282,2.601709-24.213921,3.38283-36.496759,2.419383-.193267-.015164-.387584-.03685-.577149-.076077-1.115928-.230852-1.70078-.957467-1.570983-1.942301,.119425-.906136,.857504-1.485381,1.931684-1.435716,2.987731,.13813,5.973045,.405888,8.961396,.440104,14.033878,.160726,27.689289-2.100279,40.97387-6.604065,6.372184-2.160324,12.518206-4.8498,18.431758-8.063332,.352923-.191781,.668961-.451452,1.002164-.679528-.039107-.090102-.078207-.180219-.117314-.270322-.300211,.077231-.60762,.133659-.899608,.234696-13.220265,4.57515-26.682334,8.271017-40.379813,11.111495-.304219,.063077-.609343,.130355-.9175,.1644-1.112251,.122908-1.924212-.417407-2.095883-1.379545-.164081-.919592,.452367-1.722299,1.537258-1.972643,5.067645-1.169296,10.137675-2.328312,15.203725-3.504443,.902008-.209423,1.789243-.48245,2.665457-.852627-1.692141,.147185-3.38404,.297147-5.076452,.441086-11.386875,.968474-22.744635,.643603-34.077506-.771923-.500932-.062565-1.000256-.138087-1.500159-.208768-1.079377-.152553-1.724186-.902933-1.62629-1.891454,.093036-.939469,.826624-1.56237,1.896205-1.464934,1.972001,.179678,3.935655,.448846,5.905827,.651093,9.960064,1.022566,19.92384,1.061723,29.904261,.242556,8.767146-.719567,17.369905-2.402453,25.997019-4.397693-1.63913-.206618-3.274444-.452648-4.918145-.61215-4.170777-.404678-8.340544-.839343-12.519879-1.130182-3.324778-.231365-6.664977-.405561-9.995002-.360396-5.591868,.075807-11.180818,.355441-16.771675,.527117-1.171157,.035967-1.861373-.667823-1.853748-1.767507,.007141-1.02923,.696104-1.629875,1.957613-1.682146,3.839718-.159146,7.679706-.311714,11.826876-.479246-.482504-.235764-.711514-.374592-.958358-.464395-9.579143-3.48485-18.497224-8.238838-26.892563-13.997444-.160229-.109909-.321306-.219589-.47332-.340298-.883074-.701213-1.091786-1.781297-.496657-2.551382,.570646-.73844,1.572645-.823929,2.505007-.230653,2.883296,1.834663,5.718234,3.752345,8.665164,5.478674,9.509782,5.570919,19.577075,9.783167,30.423715,11.926291,2.38251,.470746,4.869597,.39444,7.302164,.634533,2.588183,.255428,5.162298,.687928,7.754681,.855689,2.254332,.145904,4.52558,.0304,6.746081-.052797-5.70506-1.112014-11.452701-2.043225-17.106095-3.374643-10.937683-2.57588-21.2968-6.727044-31.160388-12.107727-.431522-.235394-1.054374-.538864-1.133801-.908294-.138889-.645967-.137985-1.502361,.192075-2.026366,.490524-.778757,1.389659-.704801,2.198573-.28849,2.242817,1.154246,4.463602,2.354354,6.734829,3.449816,8.922136,4.303312,18.263334,7.389934,27.929042,9.517195,.181751,.039997,.372737,.03806,.600835-.117911-2.826597-.871579-5.654441-1.739143-8.479458-2.61582-2.999749-.930898-5.997205-1.869199-8.994981-2.806433-4.315337-1.349159-8.15838-3.549195-11.147456-6.936246-3.954732-4.481267-7.706753-9.141593-11.534037-13.73484-.320687-.384851-.580563-.829048-.817928-1.272833-.485999-.908628-.19809-1.6915,.571571-2.249323,.784495-.568565,1.553106-.328672,2.194939,.325717,.214704,.218906,.37185,.496034,.545514,.753163,3.537841,5.238296,7.754837,9.905648,12.140414,14.430094,2.721465,2.807636,6.078608,4.521385,9.774671,5.654564,4.750333,1.456412,9.494593,2.932567,14.243196,4.394653,.38333,.118039,.779924,.193063,1.40357,.344819-3.04087-1.682857-5.896301-3.162201-8.650865-4.810131-4.615342-2.761154-8.861386-6.030637-12.792367-9.704982-1.039718-.971834-1.199065-2.006702-.428866-2.823676,.701554-.744136,1.755013-.638435,2.768026,.309663,6.066341,5.677581,12.909902,10.193548,20.435558,13.691989,.275023,.127849,.557478,.239708,.932899,.233372-1.010778-.853496-2.024176-1.703909-3.031914-2.560986-6.892349-5.86183-13.331029-12.141352-18.257211-19.815426-4.401311-6.85641-7.018612-14.417856-8.820278-22.30136-.189917-.831006-.389987-1.665394-.491182-2.509499-.119428-.996189,.373876-1.647289,1.360106-1.854548,.922533-.193881,1.716988,.349382,1.946895,1.378662,1.143612,5.119958,2.485229,10.180754,4.499402,15.037595,2.911803,7.021351,7.254193,13.081028,12.475646,18.558413,5.650233,5.927178,12.020118,11.026319,18.368957,16.156736,.781184,.631273,1.43669,1.476767,1.976134,2.332826,.597575,.948312,.140672,1.778-.62077,2.335175Zm4.369865,28.194686c.116388,.03423,.232776,.06846,.349164,.102689,.738567-2.285211,1.513152-4.559872,2.187595-6.86385,.148312-.506627-.059098-1.117396-.102697-1.680209-.521639,.410986-1.043791,.821302-1.563422,1.234794-.02657,.021159-.033888,.068545-.046426,.104996-.795694,2.312037-1.127422,4.67324-.824214,7.101579Zm-.602601-19.194064c1.894119-.028036,2.425981-.651648,2.181522-2.863331-.582617-.031368-1.182235-.063661-1.476095-.079495-.263596,1.099655-.49,2.044136-.705427,2.942826Zm22.622804-9.914064c2.209637,.133616,4.41718,.333556,6.628739,.398826,15.59656,.460366,30.937975-1.308152,46.004765-5.377985,2.433684-.657386,4.839489-1.420794,7.246846-2.171572,1.237994-.386082,1.798462-1.295565,1.476551-2.243556-.341191-1.004647-1.261018-1.38875-2.477583-1.033381-.148796,.043464-.296096,.092196-.443682,.139774-17.10025,5.512676-34.6344,7.878592-52.580536,7.227769-2.159687-.078313-4.315828-.254189-6.715041-.399467,1.228881-1.334821,2.255357-2.492456,3.326971-3.606691,5.822139-6.053639,12.453597-11.125606,19.375984-15.827829,6.555196-4.452775,13.166307-8.823194,19.747631-13.237582,1.069207-.717153,1.37547-1.716667,.833811-2.556907-.572543-.888181-1.604501-1.04831-2.649289-.34143-8.395677,5.68035-16.847355,11.280978-25.153199,17.090018-6.317721,4.418567-12.135089,9.457984-17.21624,15.294583-1.276268,1.466031-.985397,2.559392,.905845,3.313915-1.261232,2.004467-.626124,3.191547,1.688425,3.331514Zm-37.989863-27.348858c-.289497-1.285-.719423-2.53923-.989868-3.827504-1.027914-4.89651-1.665607-9.836342-.543652-14.790163,1.221392-5.392821,3.960499-9.661811,9.395662-11.734588,1.006336-.383783,1.45137-1.254465,1.16638-2.103903-.339076-1.010649-1.241888-1.468344-2.327199-1.095881-4.218826,1.447862-7.213769,4.343557-9.353522,8.154175-2.583633,4.601093-3.151869,9.620803-2.737057,14.780815,.199215,2.478039,.594698,4.940294,.901289,7.409697-.632168-.930292-1.181473-1.907316-1.597538-2.93812-.550893-1.364822-.971849-2.781537-1.497596-4.157244-.385516-1.008776-1.227479-1.428141-2.112464-1.140869-.955724,.310226-1.399263,1.182631-1.116786,2.233945,.100533,.37415,.255651,.733279,.367297,1.104845,1.455421,4.843443,3.722611,9.128828,8.154307,11.943911,.251137,.159516,.446857,.42877,.624223,.678324,1.236976,1.740346,2.507456,3.459406,3.676634,5.244596,.889727,1.358521,1.770818,2.748674,2.430595,4.225355,.851773,1.906426,.903866,2.049454,2.913134,1.884271,.100348,.183209,.21213,.383712,.320637,.585972,.613736,1.144044,1.528473,1.561053,2.436383,1.109757,.932607-.463562,1.185908-1.45098,.661528-2.617998-.188031-.418468-.397768-.827169-.597596-1.240333,.362748-.006621,.522436,.097834,.685713,.196352,1.229216,.741672,2.181565,.661252,2.755047-.231187,.585507-.91117,.235866-1.811625-.849766-2.659176-1.587685-1.239507-3.14754-2.521182-4.640488-3.871929-.513687-.464765-.970603-1.142912-1.146004-1.805025-.784317-2.960866-1.512604-5.93973-2.135146-8.93825-.170994-.823609-.048234-1.779823,.194011-2.6001,.32849-1.11232,.214187-1.999476-.616982-2.447468-.896241-.483069-2.045655-.226018-2.420983,.865727-.426097,1.239407-.704053,2.640332-.589409,3.930436,.197279,2.220126,.748513,4.408806,1.158513,6.650753-1.326994-.541782-2.247348-1.370126-2.569295-2.799193Zm56.989201,38.26729c9.181731-.436231,18.237704-1.808229,27.122313-4.111452,7.42859-1.92577,14.774297-4.172451,22.148908-6.304027,1.221548-.353077,1.73594-1.197531,1.463124-2.127788-.320259-1.092094-1.239033-1.508206-2.521125-1.119147-.816155,.247682-1.620762,.533239-2.434923,.78777-12.384098,3.871616-24.869319,7.316113-37.806196,8.808728-9.89407,1.141573-19.75747,1.085459-29.563316-.869045-1.286933-.25651-2.195441,.203542-2.400707,1.186098-.223507,1.069768,.434597,1.885887,1.735171,2.14674,6.346939,1.273082,12.757895,1.809454,19.227629,1.608574,1.009817,0,2.021585,.041406,3.029123-.00645Zm-36.999802-35.137881c2.482467-7.240556,6.706376-13.453149,11.408831-19.36507,5.43957-6.838604,10.989605-13.589299,16.481389-20.386469,.799367-.98939,.748307-2.065522-.058009-2.667748-.852962-.637061-1.810181-.443685-2.615429,.544958-2.452494,3.011043-4.949926,5.987137-7.339569,9.047361-5.016165,6.423824-10.076192,12.81769-14.917311,19.37224-2.725908,3.690706-4.664245,7.869892-6.116889,12.243379-.450466,1.356243,.241006,2.522428,1.939904,2.544697,.27026-.284532,1.0064-.718869,1.217084-1.333347Zm10.286229,5.728171c2.551738-2.368849,4.859011-4.916387,5.954204-8.335732,.235353-.734767,.550644-1.452853,.905717-2.13898,4.042358-7.811321,9.433259-14.576739,15.930489-20.48053,1.018318-.925309,1.218715-1.935673,.552936-2.726447-.698798-.829981-1.846547-.790839-2.857332,.178674-1.624507,1.558169-3.286946,3.087363-4.796445,4.752884-5.340454,5.892393-10.123315,12.157356-13.151897,19.622655-.642099,1.582752-1.729831,3.004415-2.734722,4.412907-.601832,.843529-1.545453,1.445399-2.133929,2.295406-.339966,.491071-.503684,1.329104-.332021,1.882306,.15306,.493271,.876328,.809605,1.347975,1.204024,.582425-.287899,1.023714-.396747,1.315026-.667168Zm-9.984472,6.195215c.549569-1.489859,1.07669-2.992746,1.722028-4.441712,2.979416-6.689561,7.219137-12.562589,11.904435-18.13264,2.223235-2.643051,4.532486-5.213585,6.786277-7.831163,.815243-.946816,.830465-1.922096,.105082-2.59135-.760723-.701854-1.828378-.593113-2.650613,.294798-.63283,.683393-1.243319,1.387582-1.859276,2.08646-5.213244,5.91509-10.404332,11.870019-14.272065,18.779995-1.921308,3.432544-3.390063,7.124048-4.968564,10.739872-.578053,1.324099,.209652,2.500607,1.169705,2.508104,1.251621-.010807,1.75104-.566679,2.062991-1.412365Zm28.096248,7.165674c12.838629-1.314759,24.024573-6.473346,33.94114-14.585638,.838268-.68575,1.004876-1.687599,.423733-2.464882-.569823-.76219-1.493139-.912031-2.38308-.313088-.772356,.519805-1.49855,1.108753-2.239752,1.674186-7.290246,5.561308-15.256138,9.679417-24.356765,11.344604-2.366135,.432935-4.751066,.762475-7.12546,1.151135-1.019115,.166821-1.615294,.733585-1.560717,1.820332,.045692,.909312,.762973,1.566342,1.825003,1.584141,.400125-.057937,.935846-.155472,1.475896-.21079Zm-3.194578-14.284945c1.385323-2.093964,2.508438-4.392752,4.089517-6.319632,3.810051-4.643346,8.272653-8.630715,13.132547-12.168156,1.033624-.752366,1.26492-1.788437,.646912-2.591884-.642598-.835406-1.638404-.904535-2.664254-.158783-5.080026,3.693048-9.714818,7.873822-13.784386,12.664951-1.893649,2.229403-3.585292,4.594045-4.587818,7.379924-.483351,1.343101,.221485,2.448294,1.983054,2.425377,.250176-.254389,.817337-.676915,1.184428-1.231797Zm-34.564281-5.83803c.496835,.66064,.87526,1.473385,1.081979,2.274625,.325336,1.260986,.976356,1.917632,2.027558,1.727496,1.051216-.190144,1.740503-1.1184,1.338584-2.283275-.510177-1.478653-1.259786-2.887907-2.019128-4.264782-1.871664-3.393822-2.195405-6.81966-.32609-10.301513,1.009432-1.880227,2.125877-3.702709,3.169689-5.564896,.620727-1.107393,.409494-2.168867-.474601-2.645778-.911598-.491755-1.895628-.124895-2.515963,.952512-.948661,1.647667-1.83606,3.333357-2.845905,4.942387-1.320935,2.1047-2.041526,4.345885-1.880983,6.451141-.052043,3.415244,.578922,6.230932,2.444862,8.712082Z"/>
      <path class="cls-1" d="M1794.012296,386.13391c-.194256,0-.388755-.006398-.582734,.000925-7.607613,.287386-14.186211,2.450008-18.614595,9.298523-5.065897,7.834442-5.121537,16.652932,.197374,24.326376,2.541154,3.666052,5.785303,6.580123,9.598195,8.859754,5.739535,3.431538,11.925265,5.276954,18.648223,4.753025,8.9773-.699602,15.288331-5.410979,19.47533-13.24683,4.267136-7.985874,3.327859-16.428879-2.854654-23.021485-6.979879-7.442865-15.866424-10.562378-25.867138-10.970288Zm23.903664-14.440619c1.047227-1.36142,2.002673-2.67747,3.037759-3.92759,.962891-1.162924,1.928273-2.345761,3.03847-3.360127,2.198019-2.0083,4.438582-2.227066,7.064328-.830958,.714809,.380055,1.383658,.846565,2.192781,1.34713,4.826782-4.201056,9.147039-8.808541,11.74137-14.790314,.411643-.949112,.680947-1.987163,.843825-3.011486,.382406-2.404823-.78874-4.66863-2.681528-5.252323-1.529384-.471624-3.100943-.470638-4.553521,.227807-5.922375,2.847713-11.608227,6.096607-16.7433,10.232543-2.581208,2.078978-4.957221,4.363384-6.644473,7.263064-2.407569,4.137651-1.821889,7.989589,1.689572,11.231071,.284392,.262527,.587146,.505148,1.014717,.871182Zm-12.857759-18.660264c6.272286-.37787,12.223869-1.976602,18.106048-3.86457,1.386149-.444911,2.775998-1.049858,3.979128-1.85696,2.342307-1.571311,3.03931-4.088428,1.639141-6.412457-2.781094-4.616132-6.695416-7.662164-12.344131-7.684778-6.176122-.024724-11.212469,2.701369-15.573008,6.850838-1.758321,1.673206-3.223653,3.578262-3.951415,5.94858-.895465,2.916512,.145669,5.158302,3.032919,6.059247,1.643611,.51287,3.403682,.652431,5.111317,.9601Zm82.562249,86.507016c-.002733,.081445-.005466,.162905-.008199,.24435-1.435455,0-2.877856-.090897-4.304941,.018461-3.222144,.246912-6.398298,.763397-9.336064,2.222824-2.242044,1.113803-4.01635,2.69786-4.658253,5.210611-.828694,3.243894,1.353895,6.930899,5.783012,7.168773,6.015579,.323063,11.975119-.045064,17.72024-1.932954,1.982632-.651492,3.906521-1.728885,5.591453-2.971988,1.800909-1.328704,1.979259-3.403554,.886185-5.332523-1.281103-2.2608-3.24099-3.695559-5.771013-4.13141-1.938436-.333923-3.932882-.342748-5.90242-.496145Zm-59.829732-76.034489c-2.759701,.211328-4.438625,2.365339-3.642142,5.076401,.530581,1.805975,1.406261,3.518805,2.211826,5.233698,1.020339,2.172045,2.335703,4.229573,2.537496,6.702654,.386591,4.738044,4.873128,10.391879,9.398394,11.81133,2.733524,.857411,4.944453,.031997,6.609045-2.289345,1.36319-1.901049,1.20118-3.848685,.472179-5.867711-1.372299-3.800632-3.525239-7.163706-5.936979-10.365888-2.57839-3.423439-5.366999-6.663084-8.950868-9.089664-.804326-.544604-1.79439-.814902-2.69895-1.211475Zm-96.81816,8.907971c2.887093,.140451,6.101996-1.628345,6.683064-5.238879,.152053-.944785,.894412-1.866148,1.553532-2.637808,.67203-.786776,1.587764-1.36189,2.375316-2.054119,3.55607-3.125612,7.167936-6.191976,10.627045-9.421758,1.559083-1.455726,2.741325-3.280696,3.120934-5.484425,.487815-2.831931-1.578718-4.941273-4.348881-4.348488-1.011009,.216342-2.015413,.596518-2.938905,1.06675-5.022049,2.557171-9.193498,6.192058-12.894052,10.392559-1.011414,1.148064-1.439013,2.540044-1.440511,4.081855-.002772,2.853663-.619517,3.715842-3.316116,4.773778-1.262453,.495277-2.566932,.904212-3.77978,1.500028-1.635533,.803472-2.068587,2.058787-1.488846,3.793451,.735879,2.201865,2.963575,3.564666,5.847199,3.577056Zm130.566122,11.778408c.075098-4.906152-2.874753-6.822374-6.464656-5.040183-.875296,.434549-1.618516,1.174268-2.344499,1.856619-.473588,.445117-.823969,1.027789-1.199714,1.569539-3.555074,5.125628-6.044929,10.822179-8.71776,16.414802-.889786,1.861778-.7996,3.852066,.087054,5.752966,.882982,1.893043,2.406189,2.597299,4.288117,1.673103,1.400781-.687895,2.76501-1.612617,3.871549-2.708493,4.286038-4.244717,7.309905-9.326976,9.319553-14.992931,.616752-1.738856,.92557-3.586927,1.160357-4.525421Zm-91.320398-32.421949c.052402,.734325,.069504,1.473205,.163355,2.202192,.392285,3.046864,2.407278,4.397609,5.35922,3.568181,.777958-.218587,1.562321-.497305,2.264292-.890312,5.755341-3.222174,10.046646-7.838996,12.91942-13.766478,.385367-.795146,.674577-1.656393,.875659-2.517992,.901985-3.864762-.640466-6.215224-4.547194-7.013266-2.859238-.584067-5.612661,1.142353-5.827108,4.027667-.194,2.61002-1.594105,4.19091-3.544128,5.51981-1.504766,1.025469-3.094139,1.928901-4.578786,2.981272-2.006061,1.421963-3.33852,3.248677-3.08473,5.888926Zm-19.401271,27.929159c.023059-.096398,.046111-.192796,.069169-.289194,2.526116,.060258,4.944973-.42213,7.227028-1.505572,4.139985-1.965514,6.055611-5.503335,4.950403-9.90868-.564351-2.249484-1.636871-4.433585-2.817383-6.449507-1.264193-2.158815-3.879769-2.975126-6.097345-2.33974-2.233554,.639955-3.70808,2.61349-3.776616,5.301145-.05675,2.225692-1.111478,3.776001-2.821305,5.075063-1.228167,.933099-2.459701,1.925005-3.450839,3.093344-1.915164,2.257561-1.383302,4.605614,1.352898,5.695084,1.695464,.675077,3.569898,.900689,5.363989,1.328056Zm113.068503,53.323719c-.295039,1.326057-.672435,2.552022-.823741,3.805258-.272123,2.253896,.915592,3.738573,3.143118,4.107511,2.941168,.487121,5.278479-.585661,7.020616-2.911466,1.831127-2.444585,2.753993-5.151754,1.596084-8.174514-.565639-1.476607-1.73364-2.535155-3.357878-2.422082-1.415698,.098554-1.980867-.464973-2.58841-1.615385-1.749055-3.31196-3.961407-6.31159-6.76583-8.824981-1.333085-1.19475-2.924813-1.437991-4.556368-.73335-1.634529,.705936-2.286795,2.093454-2.341695,3.83216-.063682,2.017047,.625449,3.807038,1.585052,5.516508,1.741995,3.103223,4.124712,5.607732,7.089052,7.42034Zm-78.144839-62.489185c2.282938,.03436,4.194565-.567634,5.863027-1.799392,3.639381-2.686822,5.521892-6.361016,5.672329-10.848839,.08889-2.651679-.723364-5.032355-3.183221-6.451187-2.481479-1.431301-4.918996-.853725-7.136352,.613879-3.987277,2.639054-6.409515,6.417987-7.234907,11.092733-.785146,4.446836,.777495,6.653007,4.818014,7.297745,.458444,.073154,.928324,.074663,1.201109,.09506Zm66.787185,95.29126c1.937326-.337951,4.273157-.543714,6.481509-1.186979,2.241404-.652901,2.547944-2.319044,.881004-3.96079-.90429-.890604-1.975103-1.62589-3.025959-2.351326-2.990702-2.064659-5.443962-4.49047-6.114803-8.279189-.19183-1.083372-.95139-1.734593-2.055054-1.97315-2.149396-.464631-4.252632-.309171-6.282221,.512969-2.69367,1.091115-4.077228,3.332585-3.928171,6.237645,.222318,4.332504,3.526848,8.691027,7.690247,9.859474,1.92712,.540853,3.954731,.723671,6.353447,1.141345Zm-76.789493,7.985305c-1.157603,1.506569-2.361274,2.832867-3.273272,4.336119-.728075,1.200088-1.279224,2.576318-1.582099,3.946599-.314483,1.422718,.504334,2.296498,1.966925,2.176977,1.291664-.105543,2.688026-.307164,3.802927-.905037,2.15447-1.155366,4.384999-1.451726,6.748202-1.376472,1.393693,.044395,2.808843,.152884,4.180822-.025379,2.285087-.29693,3.428207-2.63862,2.288147-4.537185-.371767-.619096-.852743-1.282587-1.454329-1.632978-1.764036-1.027476-3.613375-1.9086-5.430603-2.844525-.267689-.137868-.733235-.211314-.783388-.400437-.351277-1.324662-.72535-2.6596-.879915-4.015434-.148758-1.304863-.615044-2.115872-1.921028-2.192535-1.116183-.065532-2.249125,.154479-3.467329,.255908-.025087-.140373-.097822-.555044-.173468-.969189-.324795-1.778376-1.152949-3.280504-2.488937-4.497416-.868172-.790826-1.820808-1.136606-2.985058-.628077-1.173766,.512699-1.688775,1.440994-1.772092,2.649181-.11639,1.687565,.409785,3.223142,1.235455,4.66015,1.661538,2.891781,3.035289,3.188312,5.710433,1.305475-.082492,.318394-.225621,.604649-.422738,.847006-.533634,.656075-1.20782,1.227858-1.612189,1.95254-.747996,1.340461-.204861,2.107061,1.298347,1.998671,.306839-.022119,.612383-.062159,1.015186-.103963Zm-24.836266-55.027496c-2.077899,1.300108-3.546747,2.854389-4.447906,4.816223-.508248,1.106444-1.008802,2.291914-.205202,3.421175,.791331,1.112024,2.090859,.999336,3.215959,.797402,1.900866-.341168,3.682872-.004299,5.510683,.437929,1.57121,.380154,3.196879,.741264,4.799261,.744709,3.622343,.007786,6.31856-3.096248,5.622881-6.410486-.274194-1.306286-.98306-2.516238-1.415954-3.796433-.222717-.658651-.431812-1.388272-.37603-2.06342,.264081-3.196112-1.154714-5.121437-4.337038-5.420601-1.442693-.135619-2.926806,.063682-4.383127,.204268-2.010495,.194048-3.128457,1.520902-3.583484,3.331773-.305586,1.216144-.269119,2.518259-.400042,3.937461Zm53.295194,47.664532c-.011985-.138651-.023984-.277301-.035969-.415952-1.953012,.185992-3.95012,.17637-5.848502,.604563-2.731752,.616135-3.576972,2.559281-2.503093,5.131699,.178094,.426613,.39358,.846693,.65164,1.229452,2.448961,3.632432,5.763768,6.165338,9.930541,7.475908,3.919446,1.232783,7.559865-.520769,9.18873-4.255428,.716133-1.641931,.92984-3.363799,.689117-5.1236-.494142-3.612334-3.132001-5.520166-6.756735-5.047194-1.759374,.22959-3.543046,.272917-5.315729,.400551Zm86.337876-65.140721c-.117358-.067411-.234702-.134815-.35206-.202219-.677616,.412871-1.362108,.814952-2.031654,1.240533-2.468248,1.568848-4.980138,2.538635-7.844742,.912766-.898156-.509767-1.878341-.294047-2.793577,.161795-1.282911,.638988-2.130166,1.666413-2.644691,2.971724-.808425,2.050873-.891323,4.159543-.360686,6.287015,1.190476,4.772952,4.704983,6.858335,9.061536,5.187296,1.515235-.581206,2.833204-.794868,4.254553,.000384,.033008,.018475,.074372,.021564,.111337,.033421,2.831339,.907286,3.378375,.440448,2.892075-2.486931-.235157-1.415701-.086314-2.704721,.601024-4.042321,.384741-.748737,.4588-1.983541,.10163-2.723652-.937526-1.942704-1.165866-3.913933-.999885-5.997836,.035414-.44464,.005138-.894518,.005138-1.341977Zm-147.369101,79.76438c.46413-.030716,.935299-.020354,1.39133-.098412,5.624561-.962598,10.491966-3.463805,14.638719-7.350054,.778734-.729806,1.453475-1.632338,1.967466-2.569643,.990455-1.80616,.4587-3.412863-1.434743-4.185242-1.0466-.426926-2.246457-.718163-3.365564-.684343-4.095376,.123691-7.967323,1.294728-11.536581,3.240877-1.876818,1.023334-3.638463,2.364293-5.198755,3.83132-1.510047,1.419757-1.892703,3.309811-1.027349,5.348536,.878278,2.069171,2.573515,2.506773,4.565477,2.466961Zm-23.158935-4.881897c.611586-.235682,1.886778-.5906,3.027571-1.197967,1.812673-.965047,3.533161-2.102762,5.297229-3.159773,1.917907-1.149188,3.902155-2.047464,6.225585-1.996351,.713454,.015686,1.459065-.223384,2.146649-.467692,1.976633-.702292,2.466462-2.148211,1.369694-3.950727-.260615-.428335-.569895-.839121-.915955-1.201455-2.092183-2.190727-4.623868-3.683617-7.569103-4.327807-1.174666-.256947-2.642471-.46429-3.63511,.01439-1.880472,.906831-3.86187,2.035223-5.167708,3.60025-1.887529,2.262223-3.31798,4.936541-4.743108,7.544501-1.225018,2.241769,.713464,5.143115,3.964257,5.142631Zm145.925718,8.746211c-.097303-1.76669-.730097-3.252492-1.877615-4.485673-3.311305-3.558417-6.561091-7.137188-8.747665-11.566909-.880221-1.783187-2.975372-2.304227-4.986614-1.621335-1.773523,.602172-2.592083,2.018442-2.375145,4.153387,.050772,.499618,.126439,1.004645,.263895,1.486271,1.40861,4.935288,4.395212,8.862387,8.017298,12.353607,1.682412,1.621606,3.49475,3.103464,5.887744,3.581917,1.378961,.275693,2.508245-.223356,3.087919-1.483111,.348644-.757633,.493658-1.608938,.730182-2.418153Zm-147.568748-64.244716c.001434,2.630264,.800622,3.593418,2.799249,3.975821,.760635,.145554,1.527889,.256933,2.287607,.406771,1.367097,.269644,2.463291,.817429,2.849733,2.350586,.256565,1.017896,1.095707,1.532346,2.121579,1.45658,.875157-.064635,1.787945-.212965,2.592065-.546276,4.017015-1.665075,5.113772-6.676286,2.328828-10.510709-1.695525-2.334445-4.075733-3.707501-6.80602-4.369867-1.013226-.245831-2.323156-.204539-3.23589,.241603-3.103868,1.517159-4.569157,4.246974-4.937151,6.995492Zm118.042089,42.265723c-3.07471,.07114-4.832276,2.066324-4.133807,5.01504,.342594,1.446332,.931363,2.892051,1.690326,4.170908,2.015185,3.395512,4.624135,6.234187,8.393058,7.74911,3.948127,1.586989,5.872813-1.700318,5.312854-4.385539-1.086526-5.210227-4.088857-9.039825-8.645367-11.671199-.780968-.451024-1.740187-.59339-2.617063-.87832Zm-122.216025-41.389794c0-.479363,.013408-.828631-.002228-1.176588-.086446-1.923845-.856806-2.590581-2.782617-2.575877-2.613825,.019984-4.414862,1.321601-5.588864,3.529437-1.464648,2.754382-1.7215,5.697532-.93108,8.692593,.448731,1.700347,1.28769,3.253232,3.176745,3.681055,2.989396,.677013,5.783588,.204809,8.17449-1.858227,2.586759-2.232019,2.450538-5.36341-.42762-7.198564-1.274826-.812831-1.972138-1.699592-1.618826-3.093828Zm55.30739,15.930542c.171155,1.734451,.218155,3.020382,.43873,4.275811,.445199,2.533945,1.097679,5.011609,2.759345,7.07483,1.175986,1.460167,2.683386,1.915802,4.227737,1.224769,2.154378-.964022,3.50517-2.556719,3.496644-5.021388-.004007-1.157757-.02718-2.344636-.274357-3.467065-.856707-3.890234-2.371124-7.490071-5.403957-10.212342-1.879679-1.687209-3.618898-1.211176-4.326583,1.196416-.50839,1.729583-.673538,3.560054-.917556,4.928968Zm-38.283644,21.024507c3.996252-.188825,7.538646-1.314712,10.686675-3.417432,1.345184-.898518,2.564291-2.154545,3.469421-3.498208,1.011187-1.501089,.313977-3.195941-1.430679-4.505429-1.429356-1.072839-2.898666-1.057423-4.226776,.166819-1.461417,1.347108-3.190694,2.0299-5.114025,2.309337-1.651183,.239867-3.325592,.364511-4.95314,.711658-2.258936,.481854-3.693686,2.712122-3.456536,5.124597,.180225,1.833361,1.57906,2.888094,4.048828,3.051184,.3861,.025493,.772556,.045562,.976232,.057476Zm43.980975-76.500316c.01202-.058209,.024041-.116418,.036061-.174634,.889146-.054458,1.78496-.058002,2.666156-.173281,2.316508-.303029,4.60746-.731578,6.533164-2.19015,1.658343-1.256091,1.930109-2.943719,.830709-4.829638-1.084121-1.859707-2.537695-2.285652-4.53074-1.582627-1.14265,.403049-2.417825,.743698-3.599113,.655285-2.112039-.15808-4.196436-.672665-6.295665-1.018281-2.334913-.384432-4.521822,1.055658-5.250161,3.433908-.58015,1.894359,.339541,3.42067,2.707462,4.473496,.352757,.156841,.713429,.329297,1.088128,.397733,1.934828,.353402,3.87542,.675305,5.813999,1.008189Zm-52.953866,6.742622c4.323609-.412806,7.542564-2.406176,9.90893-5.713716,2.70705-3.783716,1.232665-6.997762-3.382253-7.611691-.115191-.01533-.231731-.021073-.347783-.029307-2.220782-.15766-3.885317,.781375-5.151253,2.563366-.914037,1.286643-1.742561,2.612358-3.514233,2.99864-1.73185,.377606-2.550491,1.522838-2.593922,3.120374-.054295,1.997241,.821094,3.556282,2.425874,4.08831,.910343,.301798,1.881668,.419653,2.654641,.584024Zm124.349899-10.638457c-.006348,1.830756,.484762,3.122773,1.363175,3.930202,.900974,.828175,1.824352,.809493,2.641431-.105258,.305174-.341666,.576215-.743207,.754721-1.163372,.65228-1.535235,1.804723-2.349497,3.42862-2.633047,.754607-.131776,1.53307-.333852,2.206203-.685155,1.758492-.917741,1.945781-2.602203,.481019-3.917612-.828837-.744303-1.143191-1.665445-.962948-2.72257,.135933-.797316,.385965-1.578904,.631356-2.35287,.304263-.959659,.76282-1.884403,.944544-2.863249,.097587-.525559-.079738-1.31309-.442075-1.645383-.282229-.258805-1.101742-.13537-1.574277,.068699-.586648,.253339-1.152258,.687895-1.569409,1.178204-1.799969,2.115651-3.897725,3.425602-6.793088,3.750587-2.536514,.284689-3.045146,1.98816-1.540259,4.086737,.907066,1.264944,1.207372,2.561551,.628723,4.046235-.164515,.42208-.175546,.903984-.197737,1.027853Zm-128.817843,30.180052c.729808-.08889,1.467954-.134808,2.187884-.274569,2.354623-.457059,3.449252-2.072566,2.684788-4.355257-1.440163-4.30035-4.322488-7.418006-8.476927-9.216266-2.218099-.960107-4.401542-.320344-5.829827,1.34103-2.273517,2.644548-1.23043,5.799225,2.169245,6.521316,.846195,.179743,1.636163,.248023,1.83048,1.398207,.540306,3.198147,2.194407,4.530666,5.434357,4.585537Zm-7.005407,45.728418c3.118297,.017934,4.694809-1.284096,4.487839-3.889479-.3696-4.652578-2.598484-8.367096-6.582022-10.790986-2.883814-1.754734-5.891022,.094256-5.926377,3.449259-.034019,3.227953,1.138873,6.05655,3.022212,8.620058,1.304217,1.775244,3.00925,2.768289,4.998348,2.611148Zm74.049894,5.646618c.089545,.913051,.136702,1.532631,.213102,2.148581,.313863,2.530315,.904525,4.977363,2.481884,7.050092,1.010454,1.327779,2.226088,1.297689,2.91675-.195045,1.442622-3.117969,3.960404-5.113594,6.697914-6.944279,.641861-.429246,1.260791-.913279,1.811684-1.452409,.57267-.560439,.521016-1.196672-.119707-1.703065-.361839-.285984-.750721-.588294-1.178249-.73251-2.935652-.990226-5.862515-2.018058-8.838577-2.872238-1.567324-.449843-2.849203,.344328-3.385114,1.916101-.333969,.979494-.444829,2.035053-.599686,2.784771Zm-43.862489-19.953334c-.365959-1.952198-.501643-3.515616-.962777-4.976281-1.309322-4.147309-5.485756-5.691013-9.262628-3.523843-1.776252,1.019206-2.219853,2.445411-1.13817,4.193227,.688623,1.112679,1.540394,2.137237,2.407577,3.123434,1.173837,1.334938,2.024263,2.807303,2.518295,4.524218,.286606,.996048,.661518,2.011624,1.225267,2.867925,.405939,.616591,1.202635,1.375248,1.800457,1.354737,.606839-.020838,1.493956-.812475,1.716402-1.454331,.726752-2.096984,1.206454-4.279555,1.695578-6.109086Zm11.740282-48.332663c-.175318-2.797041-2.769401-5.626876-5.618874-5.999316-1.378035-.180128-2.28128,.238543-2.783507,1.534196-.373033,.962335-.62599,2.002763-.73557,3.029414-.266721,2.498681-.812995,4.863578-2.240656,7.003327-.543847,.815094-.863482,1.819362-1.112916,2.782074-.37803,1.459106,.350779,2.235435,1.855275,2.108314,.3823-.032303,.773702-.105301,1.13322-.235888,3.709746-1.347478,6.632922-3.664401,8.497584-7.170844,.495523-.931811,.678805-2.029665,1.005443-3.051277Zm118.802358,17.005288c-.365853-1.940512-.519991-3.733905-1.054571-5.405649-1.448678-4.530431-5.636446-5.005112-8.934001-3.414913-2.079792,1.002944-2.510195,2.545595-1.267481,4.47504,.688591,1.069116,1.650955,1.962503,2.333966,3.034452,.903607,1.418177,1.690554,2.915209,2.457559,4.41422,.455654,.890533,.650174,1.934933,1.198618,2.751251,.428183,.637315,1.229591,1.432084,1.848905,1.418476,.624553-.013736,1.540259-.823506,1.783444-1.484891,.699351-1.902181,1.123378-3.905606,1.633561-5.787988Zm-138.140125-.830267c3.367151-.140159,4.495333-1.312542,3.891248-4.554799-.351035-1.884154-.94359-3.762265-1.707802-5.521305-1.129217-2.599221-4.357902-3.358163-6.678812-1.717021-1.724078,1.219111-2.948523,2.854517-3.686523,4.823183-.916457,2.444692,.339886,5.1255,2.857238,5.864437,1.733679,.508884,3.54695,.746602,5.32465,1.105505Zm75.717698-29.955878c3.978986,.034944,5.148766-1.097947,4.644646-4.080667-.343847-2.034455-.986647-4.069237-1.826957-5.956408-1.117471-2.509612-4.279904-3.20515-6.525022-1.633626-1.762819,1.233915-3.027354,2.883141-3.754532,4.905276-.88647,2.465053,.39395,5.154993,2.893926,5.853477,1.779074,.49707,3.631623,.73113,4.56794,.911948Zm20.518471,96.218609c-.294911-2.979233-1.248735-6.192966-2.845986-9.209903-.826944-1.561952-2.03628-2.222795-3.476076-1.973947-1.265076,.218673-2.359317,1.404114-2.461658,3.035683-.26976,4.301062,1.27847,7.896216,4.533408,10.72023,.825577,.716284,1.823569,.831449,2.8264,.309569,.986747-.513539,1.477388-1.334383,1.423911-2.881632Z"/>
    </g>
  </g>
</svg>