<?xml version="1.0" encoding="UTF-8"?>
<svg id="Layer_4" data-name="Layer 4" xmlns="http://www.w3.org/2000/svg" viewBox="0 0 1080 1080">
  <defs>
    <style>
      .cls-1 {
        fill: #311e6b;
      }
    </style>
  </defs>
  <path class="cls-1" d="M540.416816,459.106833c7.163422-7.579983,14.477141-14.706009,13.536239-26.381054-.311414-3.864026,.762543-8.207097,2.378889-11.802542,17.071606-37.974945,33.504093-76.321562,54.755715-112.198069,16.625174-28.066291,39.625425-50.858172,64.39327-71.804723,30.431864-25.736728,62.167769-49.562623,99.219061-65.253076,29.476694-12.482734,59.76926-22.395639,91.267055-28.351607,31.110579-5.882766,54.896262,6.633544,66.803847,35.975972,8.792729,21.667052,13.101281,44.418461,12.769712,67.89749-.170511,12.07582-3.622169,23.443193-9.221979,33.980716-20.544013,38.659372-44.243013,75.267334-73.888613,107.61109-8.688865,9.479609-19.098534,17.576093-29.49994,25.248466-17.485755,12.897972-35.750878,24.733511-53.403518,37.412337-20.538365,14.751491-43.364894,24.528486-67.23286,32.233588-13.645989,4.405171-26.579613,10.31805-38.533275,18.290604-1.152792,.768792-2.28323,1.571116-4.597137,3.166905,7.436251-.49385,13.477856-.950184,19.52612-1.288207,61.487509-3.436794,122.590773-1.172213,182.811578,12.975647,34.978288,8.217591,66.485893,24.375304,96.8457,43.096826,13.383861,8.253144,27.096437,15.972575,40.498193,24.197657,11.214722,6.882743,20.760838,15.473642,26.764511,27.557667,13.850031,27.876575-5.992378,60.006744-37.156405,59.998599-5.841367-.001546-11.683924-.180619-17.523746-.106124-7.893563,.100655-14.952704,2.573084-20.955724,7.827755-10.253903,8.975563-21.025998,17.427459-30.675265,27.010695-18.329332,18.203921-40.648015,23.102704-65.265147,21.338245-38.30557-2.745677-74.081716-15.267279-109.866126-28.08377-38.524238-13.79765-70.531902-37.449763-100.571793-64.309863-13.293017-11.886045-26.38865-23.992721-40.150037-36.523836,2.627759,11.689611,5.125733,22.750977,7.599449,33.817695,4.348148,19.452799,8.678758,38.909463,13.021198,58.36357,5.19993,23.295392,15.679338,44.58221,25.196025,66.236332,7.189046,16.357774,13.452291,33.016857,16.344259,50.760252,3.987209,24.462938,.373899,48.188773-7.582327,71.312464-11.111273,32.293725-25.686868,63.028998-43.692896,92.048268-9.012764,14.52536-20.435511,26.855403-36.24844,34.360445-13.831125,6.564311-27.435794,7.458609-41.459131-.156006-24.211366-13.146635-48.743153-25.702126-73.092628-38.596084-3.716699-1.968086-7.180931-4.414356-10.754437-6.651469-17.38522-10.88366-28.553836-26.169727-32.519315-46.412246-3.032961-15.482263-9.767162-29.3531-17.170536-43.150632-8.098824-15.093497-15.792625-30.508042-22.20804-46.371104-6.127752-15.151821-4.829211-30.679625,1.741316-45.900709,14.770184-34.216151,29.384215-68.503766,43.633413-102.939538,10.776881-26.044161,20.895231-52.360916,31.289086-78.563342,.697531-1.758454,1.246668-3.575825,2.296547-6.615797-3.322675,1.926826-5.529983,3.112743-7.643831,4.446758-34.869727,22.006145-72.087665,38.971176-111.252746,51.719473-21.246271,6.91568-40.729376,17.541432-60.29307,28.062723-14.191291,7.631915-28.841677,14.086297-45.193413,15.627091-18.370385,1.731046-35.31005-3.038664-51.638301-10.916657-20.872594-10.070575-39.074118-24.256754-58.079549-37.242984-14.837477-10.138412-29.922494-20.009283-45.529218-28.88871-8.336428-4.743015-17.932202-7.360035-27.096645-10.541803-18.515658-6.4284-26.286882-19.906786-22.104709-39.068977,3.117813-14.285466,10.783868-26.181677,21.084408-36.047019,23.37661-22.388876,48.616377-42.530919,76.91221-58.434974,26.676105-14.993615,55.839541-22.347943,85.979001-26.244935,33.103039-4.280229,66.277897-5.039093,99.528662-1.970405,26.534607,2.448886,52.714548,6.881286,78.426683,13.951218,1.063345,.292332,2.147855,.507762,4.501983,1.058211-2.003504-2.902099-3.055315-5.270307-4.821482-6.829116-5.815-5.132464-11.887431-9.97331-17.863251-14.923371-11.473252-9.503836-23.366421-18.550564-34.320114-28.619505-14.908412-13.704219-20.329209-32.327614-24.534403-51.381629-14.641379-66.341118-1.894408-128.495304,29.129964-187.659415,7.289848-13.901872,10.254052-27.735031,6.06824-43.043511-1.876334-6.86209-3.28299-13.906487-4.184385-20.959958-.496372-3.884322-.148424-8.14375,.931033-11.915786,4.562743-15.944097,34.260572-30.810608,50.279178-14.292258,14.289329,14.735112,32.11453,23.395839,48.55656,34.43436,45.457517,30.518372,78.303943,71.092902,97.73684,122.190062,9.72715,25.576664,11.054258,52.635279,10.00973,79.653525-1.35297,34.994099-6.565326,69.333557-19.961969,102.074996-5.840416,14.273961-5.716278,29.337078-4.049278,44.503108Zm-257.374268-4.396818c-18.411377,1.548613-36.888049,2.558429-55.217887,4.779787-23.879262,2.893865-47.392962,7.789794-69.213414,18.502645-31.341033,15.387018-58.227557,37.046877-83.612828,60.631153-8.633677,8.021157-15.269889,17.706415-17.56621,29.693709-1.790867,9.348633,1.005854,15.043199,10.058429,17.66777,27.884582,8.084296,51.882816,23.178031,75.259775,39.816009,18.081384,12.868988,36.59948,25.199863,55.539988,36.759747,12.560215,7.665863,26.66634,11.792049,41.749529,11.116361,14.285985-.639957,27.351995-5.544922,39.558302-12.429211,25.633687-14.457464,52.148378-26.833108,80.111965-36.060575,27.985674-9.23472,54.3292-21.972316,79.634439-37.015753,12.957405-7.702962,26.224947-14.884102,39.350812-22.303709,3.714529-2.099716,7.436013-2.094009,11.052237,.142748,3.819671,2.362619,3.286557,6.177685,2.533645,9.624556-1.068755,4.892659-2.361826,9.795009-4.164022,14.459486-13.255354,34.308007-26.222985,68.73718-40.149383,102.77289-12.697774,31.032897-26.33107,61.687908-39.87914,92.365036-4.718451,10.684254-5.887146,21.468567-1.615038,32.126007,5.228527,13.043484,11.053901,25.911402,17.564679,38.361838,8.867699,16.95748,18.673505,33.412282,22.244812,52.594984,3.407306,18.301722,13.806928,31.619583,29.979547,40.362921,25.806517,13.951754,51.853997,27.458974,77.613873,41.495151,10.706161,5.833569,20.51821,4.213285,30.339653-1.619035,10.716387-6.363834,18.976656-15.33458,25.433599-25.744754,17.66126-28.474141,32.105404-58.593893,42.515906-90.422395,3.989944-12.19871,6.370379-25.18607,7.530781-37.991086,2.149639-23.720544-5.348622-45.729423-14.473811-67.286219-8.328402-19.67462-17.864351-39.060356-23.819274-59.46328-8.112528-27.795064-13.406572-56.417898-19.762742-84.718673-4.274367-19.031275-8.913894-37.895069-19.555014-54.636555-3.283584-5.165966-3.046427-9.089178,.614149-12.135392,4.118363-3.427192,8.439638-2.90638,12.949439,1.336156,23.63384,22.233554,47.042116,44.716337,71.037608,66.553278,19.69776,17.925857,40.118705,35.321747,64.453376,46.617598,19.643955,9.118607,40.002951,16.882331,60.49411,23.943018,25.312434,8.722053,51.176828,15.369004,78.276476,16.230424,19.176715,.609576,35.650046-4.475891,49.449899-18.286383,8.12757-8.133881,17.394435-15.118229,25.705298-23.082549,13.19159-12.641341,28.932462-16.415919,46.589382-14.950511,4.458612,.370097,9.307353,.668554,13.45455-.646794,17.095685-5.422627,23.018859-22.233138,13.717213-37.495602-4.966339-8.148625-12.296467-13.775771-20.224216-18.613436-12.316265-7.515565-25.157797-14.209722-37.197308-22.132424-44.794201-29.477298-93.896658-46.305111-147.12039-51.883743-58.351665-6.116091-116.597444-5.670607-174.804757,1.61196-6.593268,.824916-13.190223,1.682056-19.810602,2.206494-4.260158,.337517-7.820436-1.381995-9.024774-5.781309-1.184064-4.325355,.150119-8.083702,4.141133-10.473194,1.790781-1.072153,3.828173-1.725992,5.729061-2.621895,13.744086-6.477806,27.975032-12.113543,41.094863-19.675987,15.818517-9.117924,31.986796-17.140091,49.305785-22.810758,21.716424-7.110539,42.068642-16.843508,60.723895-30.162796,17.030703-12.159293,34.599097-23.579461,51.404949-36.034504,10.121977-7.501504,20.189792-15.492756,28.634306-24.764575,27.565996-30.266721,49.522789-64.534805,68.605924-100.65079,6.975075-13.200798,10.126258-27.269332,7.736905-42.313126-2.618782-16.488527-4.632036-33.142497-11.721914-48.505303-8.976438-19.450674-23.052391-27.400189-44.229042-24.472451-8.618353,1.191491-17.097765,3.642116-25.51826,5.963192-25.938592,7.149897-51.762201,14.7076-75.938906,26.825379-36.737856,18.413673-68.625663,43.637288-98.856755,71.092902-22.758455,20.669008-42.312042,43.975964-55.965403,71.723644-14.092718,28.640373-27.903748,57.423107-41.441414,86.329325-2.334121,4.98392-2.626392,10.90985-3.979005,16.371626-1.423659,5.748521-1.555585,12.492083-4.783165,16.980875-7.146062,9.938559-15.626365,18.97521-24.073851,27.895421-4.008018,4.232369-10.268172,2.79871-13.125716-2.449926-1.682398-3.090121-3.079185-6.503995-3.765688-9.939867-3.676092-18.398363-3.702549-36.815544,1.644943-54.893929,3.580195-12.103525,8.620375-23.790936,11.911272-35.960901,5.861522-21.67597,8.695821-43.8905,9.283096-66.345904,.874671-33.444268-2.406773-66.154628-18.313994-96.398771-13.875537-26.38147-32.063609-49.498249-53.619748-70.023306-16.614146-15.81943-36.90584-26.323644-55.784726-38.886284-6.412383-4.267001-12.725806-9.039557-17.959862-14.633365-7.131377-7.621444-12.845961-9.449978-24.769837-1.368729-2.935755,1.989683-4.260901,4.720824-3.47422,8.374377,1.295955,6.018967,2.052196,12.186894,3.777876,18.07458,5.669697,19.344059,2.802462,37.444932-6.761401,54.912062-9.844897,17.98045-16.836856,37.127927-22.84493,56.699484-13.846672,45.106129-14.86953,90.276541-1.195895,135.568031,2.770268,9.175921,5.901058,18.47057,13.204581,25.129797,10.639009,9.700389,21.080546,19.856845,32.85787,28.011118,16.200621,11.216837,29.235493,24.459757,36.940531,42.775094,1.917802,4.558769,4.882778,8.812393,1.124314,13.52354-3.967917,4.973635-9.004738,3.021393-13.867362,1.558868-43.590607-13.110726-88.07491-20.434999-133.732873-21.495292Z"/>
  <g>
    <path class="cls-1" d="M516.313405,513.517618c.336543,1.436393,.639229,2.728243,1.017042,4.340751,1.92482,.204064,4.084834,.42588,6.243092,.663662,2.635262,.290366,5.345777,.316867,7.869406,1.015223,1.168538,.323332,2.172525,1.849621,2.875387,3.050433,.539857,.922317,.491578,2.18892,.636052,2.943148,.642545-1.170716,1.115885-3.033379,2.313488-3.969545,1.604161-1.25398,3.45618-.486628,4.743806,1.16584,1.616436-1.117408,3.262021-1.698001,4.880784-.367444,2.208292,1.815095,.886864,4.058354,.511782,6.138039-.121735,.67492-.579372,1.289315-.481296,2.293224,1.861355-1.067221,3.71035-2.156763,5.587185-3.196034,2.298147-1.272511,4.238071-.840446,5.266428,1.124402,1.358128,2.594931,.806428,4.794552-1.557568,5.951363-1.314712,.64332-2.549391,1.222882-2.835608,2.934955-.090594,.541831-.832065,1.043897-1.372089,1.428841-1.724405,1.229263-1.727554,2.698371,.325815,3.353255,5.114555,1.631122,10.239951,3.76261,15.503508,4.301794,25.59429,2.621711,51.16258,2.627981,76.520256-2.553411,9.551733-1.951695,18.829176-4.809015,27.77498-8.709451,.555964-.242436,1.113628-.493316,1.692052-.669737,1.900716-.579785,3.313016,.113834,4.1511,1.838586,.79138,1.628698,.052807,3.613498-1.802208,4.308844-6.67739,2.502973-13.301612,5.222828-20.131487,7.228946-15.034153,4.415962-30.516483,6.138178-46.135164,6.695642-13.539006,.4832-27.091054,.44781-40.540051-1.226393-5.901839-.734721-11.659023-2.632857-17.480383-4.009059-.468965-.110852-.926281-.270916-1.389032-.408129-.085717,.18467-.171462,.369367-.257207,.554036,.785611,.396759,1.539204,.883332,2.361767,1.176596,9.796623,3.492893,19.952055,5.464066,30.266772,6.286566,11.58696,.923961,23.215608,1.726564,34.831271,1.803196,22.258897,.146827,44.311833-2.248248,66.105833-6.86231,.44486-.094188,.889191-.217802,1.33968-.254168,2.091127-.168814,3.600124,.834287,3.966513,2.606607,.37054,1.792523-.77884,3.52767-2.880612,3.952045-5.210472,1.052034-10.427771,2.088184-15.671432,2.954712-22.133832,3.657777-44.431742,4.996694-66.829832,4.040826-17.325474-.739458-34.612324-2.060764-51.281654-7.461574-.263951-.085494-.559754-.072508-.944311-.117623-.114782,1.97435,.488304,3.306496,2.085582,4.491786,6.31769,4.68802,12.659095,9.362385,20.643255,10.696732,4.709544,.78711,9.496446,1.289231,14.267073,1.499705,14.505889,.639976,29.018131,1.177906,43.533077,1.557054,10.565571,.276015,21.14343,.466704,31.708276,.276015,11.016338-.198826,22.025097-.871126,33.033494-1.410895,1.842364-.090314,3.366436,.143483,4.15319,1.990457,.962145,2.258809-.442185,4.410667-3.149942,4.579007-8.269095,.513993-16.541033,1.202121-24.818599,1.311468-14.674592,.193921-29.361279,.289029-44.029768-.086859-16.638649-.426381-33.267934-1.32203-49.889445-2.230692-3.806559-.208077-7.564575-1.303722-11.532648-1.571126,5.226662,2.196249,10.365852,4.636607,15.695062,6.546781,23.989655,8.598655,48.706124,13.561102,74.215003,14.376913,.530494,.016971,1.063384,.065012,1.587887,.14574,2.245062,.345653,3.375521,1.634327,3.220026,3.643426-.139332,1.800604-1.505737,3.050349-3.627294,2.951619-5.31486-.247341-10.639222-.466592-15.931955-.982396-21.809383-2.125525-43.100979-6.685973-63.569177-14.56632-7.622454-2.934676-14.897162-6.772581-22.257838-10.165128,.093325,.256091,.328908,.975625,.614372,1.674761,3.879012,9.500072,10.871154,16.023808,19.930152,20.408225,9.363244,4.53169,18.82547,8.859957,28.271811,13.217817,1.718302,.792655,2.779401,1.873781,2.517512,3.824473-.335429,2.49896-2.579014,3.489855-5.255309,2.302503-4.164866-1.847698-8.314434-3.731261-12.446111-5.652024-5.027668-2.33728-10.018552-4.753645-15.045579-7.092235-14.485686-6.738779-23.357532-18.05155-27.29473-33.40367-.132031-.514773-.280392-1.025589-.433282-1.534621-.041577-.138467-.127517-.263587-.195246-.393778-1.831078,7.379368-2.151347,17.339289,.690531,24.645787,1.697848,4.365162,3.005175,8.900307,4.193234,13.436261,.444777,1.698112,.213569,3.634007,.000864,5.427144-.232462,1.959553-1.635176,2.901766-3.557461,2.739669-1.968919-.166055-3.127272-1.457014-2.968155-3.37513,.338494-4.080397-.556479-7.916295-2.25253-11.511122-4.823755-10.224232-4.928825-20.845864-3.131424-31.704582,1.345755-8.13014,1.29586-8.138389-4.301955-15.088032-.761841,4.030627-1.490382,7.799507-2.183979,11.574797-1.04346,5.679389-2.104503,11.356297-3.051559,17.051988-.162698,.978439,.054799,2.092698,.363337,3.059071,.413023,1.293634,1.075478,2.509187,1.650113,3.749318,.775064,1.672671,1.273874,3.400628-.302059,4.830054-1.591203,1.443248-3.325612,1.130589-5.054475-.27674-2.437327,5.018541-4.81651,9.910402-7.189297,14.805385-1.590033,3.280273-3.15982,6.570384-4.759356,9.846003-1.34301,2.750258-3.077851,3.587527-5.157999,2.531173-1.880819-.955087-2.178963-2.783196-.838711-5.558533,3.401785-7.044165,6.885623-14.049513,10.210691-21.12957,1.286149-2.73861,2.287837-5.617303,3.295558-8.475737,.255772-.725469,.03833-1.617774,.03833-2.450138-4.760526,6.40731-9.367006,12.622706-13.996782,18.820713-.635383,.850617-1.32767,1.676962-2.097007,2.405302-1.369888,1.296894-2.964463,1.225863-4.370577,.180127-1.477717-1.098988-1.749917-2.711747-.752827-4.252749,.902762-1.395262,2.16815-2.551989,3.113646-3.924123,4.653658-6.753465,9.311775-13.505787,13.80821-20.363499,.641235-.977965,.67657-2.560489,.531748-3.809815-.557845-4.812024-1.302771-9.602341-2.048993-14.905619-.946791,1.106735-1.888873,2.31652-2.94125,3.421249-10.113423,10.61656-18.400701,22.650425-26.863022,34.549167-4.495307,6.320786-8.973267,12.654056-13.501163,18.951378-1.346326,1.872471-3.362256,2.243315-4.960301,1.074104-1.497739-1.09584-1.71029-3.044553-.526175-4.884059,.205459-.319208,.435316-.622755,.655531-.932404,6.258543-8.799264,12.517658-17.59811,18.775394-26.39796,.657621-.924769,1.307146-1.855278,1.684932-3.12138-.862467,.743527-1.692317,1.529271-2.592334,2.224143-11.858143,9.155673-23.71159,18.317533-35.602099,27.430989-2.923694,2.240891-6.140236,3.922841-9.890073,4.377172-2.324635,.281616-4.103867-.860036-4.383019-2.911074-.258517-1.899557,1.14658-3.213283,3.415676-3.784318,1.876235-.472165,3.911658-1.046795,5.404854-2.191373,13.574703-10.40539,27.050187-20.94033,40.54097-31.454984,1.436809-1.119805,2.786034-2.351966,4.17586-3.532017-.163437-.211421-.326874-.42287-.49031-.634291-.357095,.104638-.735772,.163547-1.068219,.320406-20.375514,9.613348-39.599237,21.022787-56.448668,36.147992-1.877231,1.685127-3.927653,1.637113-5.248294,.07627-1.325287-1.566333-1.022483-3.481941,.892138-5.172836,14.617675-12.910063,30.698186-23.636695,48.188922-32.257225,2.855616-1.407412,5.693091-2.851691,8.419156-4.583661-.635188,.26576-1.264218,.54746-1.906484,.794829-11.051185,4.256846-22.088591,8.550168-33.166918,12.73523-2.899185,1.095199-4.798619,.350836-5.507082-1.736428-.721491-2.125664,.435065-3.626734,3.421055-4.630448,5.662522-1.903347,11.307446-3.859083,16.959684-5.793055-.0542-.187177-.108401-.374355-.162601-.561505-3.138349,.702647-6.272268,1.425748-9.41573,2.104681-23.575504,5.091746-47.388514,6.620459-71.426977,4.734919-.378239-.029678-.758532-.072118-1.129525-.148889-2.183958-.451795-3.328559-1.873837-3.074535-3.801233,.233723-1.773379,1.678202-2.907005,3.780455-2.809808,5.847221,.27033,11.689711,.794355,17.538143,.861317,27.465384,.314554,54.190077-4.110408,80.18903-12.924665,12.470857-4.22792,24.499096-9.491433,36.072374-15.780563,.690698-.37533,1.309208-.883527,1.961312-1.329888-.076535-.176338-.153057-.352703-.229592-.52904-.587537,.151146-1.18916,.26158-1.760603,.459319-25.87308,8.953922-52.219388,16.18702-79.026413,21.746055-.595381,.123447-1.192531,.255115-1.795618,.321744-2.176761,.240541-3.765832-.816899-4.101804-2.699876-.321119-1.799713,.885318-3.370671,3.008533-3.860616,9.917773-2.288403,19.840213-4.556686,29.754865-6.858465,1.765299-.409857,3.501686-.944192,5.216505-1.668658-3.311651,.288053-6.622828,.58154-9.935008,.86324-22.284994,1.895377-44.513008,1.259582-66.692311-1.510712-.980363-.122444-1.957577-.270247-2.935927-.408575-2.112424-.298559-3.374364-1.767109-3.182775-3.701722,.182079-1.838614,1.617767-3.057678,3.711019-2.866989,3.859359,.351644,7.702382,.878427,11.55816,1.274239,19.492614,2.001241,38.992494,2.077873,58.52495,.474701,17.157982-1.408248,33.994246-4.701786,50.878175-8.606625-3.207904-.404367-6.40834-.885867-9.625189-1.198025-8.162534-.791986-16.323089-1.642659-24.50237-2.211854-6.506848-.452798-13.043875-.793714-19.560991-.705322-10.943718,.14836-21.881724,.695625-32.823464,1.031608-2.292045,.07039-3.642851-1.306982-3.627928-3.459147,.013975-2.014283,1.362329-3.189792,3.8312-3.292089,7.514624-.311461,15.029778-.610048,23.146109-.937922-.944297-.461409-1.392487-.733105-1.87558-.908857-18.747123-6.820121-36.200497-16.124042-52.630823-27.39408-.313581-.215099-.628821-.429753-.926323-.665989-1.728243-1.372328-2.13671-3.486135-.971996-4.993252,1.116797-1.445185,3.077788-1.612493,4.902492-.451405,5.642834,3.590578,11.191026,7.34363,16.958396,10.722187,18.611379,10.902719,38.313848,19.146414,59.54156,23.340672,4.662756,.921285,9.530178,.77195,14.290899,1.241831,5.065274,.499892,10.103015,1.346329,15.176509,1.674649,4.411902,.285545,8.85691,.059494,13.202602-.103328-11.165243-2.176297-22.413821-3.998748-33.47795-6.604436-21.40589-5.041196-41.679483-13.165345-60.983287-23.695757-.844521-.460685-2.063491-1.054598-2.218937-1.777601-.271816-1.264207-.270047-2.940236,.375905-3.965755,.959993-1.524088,2.71967-1.379351,4.302777-.564598,4.389365,2.258948,8.735615,4.607654,13.180581,6.751556,17.461309,8.421914,35.742755,14.462672,54.659292,18.625887,.355702,.078276,.729474,.074486,1.175881-.23076-5.53187-1.705748-11.066178-3.403637-16.594954-5.119361-5.87074-1.821838-11.736993-3.658167-17.603873-5.492406-8.445448-2.640409-15.966579-6.946048-21.816433-13.57477-7.739716-8.770186-15.082711-17.890803-22.573001-26.880143-.627609-.753182-1.136206-1.622511-1.600747-2.491032-.951138-1.778256-.387678-3.310397,1.118609-4.402098,1.535317-1.112726,3.039549-.643236,4.295664,.637454,.420191,.428415,.72774,.970776,1.067613,1.473998,6.923828,10.25175,15.176816,19.386119,23.759729,28.240809,5.326118,5.494761,11.896306,8.848699,19.129785,11.066419,9.296769,2.850311,18.581652,5.739259,27.875035,8.600675,.750207,.231011,1.526372,.377838,2.746895,.674837-5.951218-3.293482-11.539517-6.188672-16.930411-9.413798-9.032581-5.403792-17.342416-11.802422-25.035651-18.9934-2.034809-1.901954-2.346663-3.927272-.839324-5.526152,1.372995-1.456331,3.434695-1.249466,5.417241,.606035,11.872299,11.111465,25.265675,19.949561,39.993966,26.79628,.538241,.250211,1.091028,.469128,1.825755,.456728-1.978171-1.670358-3.961469-3.334682-5.93369-5.012048-13.48886-11.472054-26.089853-23.761563-35.730773-38.78032-8.613706-13.418524-13.735966-28.216858-17.261966-43.645485-.371683-1.626343-.763235-3.259304-.961282-4.911284-.23373-1.949619,.731704-3.223872,2.661833-3.629493,1.805468-.379441,3.360278,.683768,3.810224,2.698148,2.238137,10.020153,4.863785,19.924523,8.805678,29.429736,5.698623,13.741326,14.197017,25.600581,24.415803,36.320247,11.057943,11.599946,23.524299,21.579359,35.949469,31.61998,1.528838,1.235449,2.811712,2.890146,3.867447,4.56552,1.1695,1.855919,.275307,3.479684-1.214894,4.570118Zm8.552163,55.179179l.683341,.200971c1.445434-4.472335,2.961355-8.924021,4.281292-13.433084,.290257-.991508-.11566-2.18683-.200987-3.288299-1.020888,.804331-2.042779,1.607352-3.059738,2.416587-.051999,.041409-.066322,.134148-.090859,.205486-1.557234,4.524835-2.206453,9.145892-1.61305,13.898339Zm-1.179337-37.564265c3.706937-.054869,4.747833-1.275326,4.269407-5.60376-1.140226-.061389-2.313725-.12459-2.888833-.155577-.515878,2.152109-.958969,4.000532-1.380574,5.759337Zm44.274575-19.402588c4.32443,.261497,8.644763,.652794,12.972955,.780533,30.523673,.900971,60.548006-2.560154,90.034879-10.525131,4.762908-1.286556,9.471254-2.780604,14.182638-4.249935,2.42285-.755593,3.51973-2.535521,2.889725-4.390812-.667736-1.966172-2.46791-2.717891-4.848821-2.022406-.291205,.085062-.579483,.180434-.868319,.273549-33.466511,10.788732-67.782196,15.419013-102.90417,14.145303-4.226674-.153264-8.446409-.497468-13.141853-.781787,2.405015-2.612348,4.413909-4.877928,6.511139-7.058572,11.394375-11.84744,24.372652-21.77367,37.920297-30.976284,12.829024-8.714425,25.76748-17.267673,38.647639-25.906971,2.092521-1.403525,2.691901-3.35965,1.631832-5.004065-1.120511-1.73824-3.140133-2.051623-5.184863-.668204-16.430988,11.116885-32.971575,22.077746-49.226753,33.446486-12.364267,8.647477-23.749307,18.510005-33.693511,29.93268-2.497755,2.869135-1.928499,5.008927,1.772809,6.485587-2.468328,3.922897-1.225372,6.246104,3.304378,6.520029Zm-74.349096-53.523827c-.566567-2.514844-1.407967-4.969469-1.937249-7.490722-2.011708-9.582849-3.259722-19.25048-1.06397-28.945491,2.390358-10.554168,7.751002-18.90891,18.388036-22.965495,1.969476-.751092,2.840443-2.455085,2.282695-4.1175-.663598-1.977917-2.430471-2.873663-4.554509-2.144725-8.256569,2.833578-14.117904,8.500678-18.305565,15.95835-5.05637,9.004694-6.168451,18.828655-5.356631,28.927196,.38988,4.849714,1.163871,9.668537,1.763892,14.50135-1.237201-1.820654-2.312234-3.732765-3.126506-5.750127-1.07814-2.671062-1.901984-5.443682-2.930911-8.136048-.754485-1.974253-2.40227-2.794983-4.134255-2.232768-1.870425,.607136-2.738465,2.3145-2.185637,4.372003,.196751,.732241,.500328,1.435083,.718829,2.162266,2.848371,9.478991,7.285437,17.865821,15.958609,23.375156,.491495,.312185,.874533,.839136,1.221652,1.327533,2.420857,3.405992,4.907285,6.770324,7.195456,10.26408,1.741264,2.658731,3.465627,5.379367,4.756861,8.269346,1.666986,3.731024,1.768935,4.01094,5.701228,3.687664,.196389,.358555,.415155,.750953,.627511,1.146793,1.201128,2.238982,2.99134,3.0551,4.768189,2.17188,1.825184-.907227,2.320914-2.83968,1.294662-5.123625-.367991-.818975-.778464-1.618833-1.169542-2.427427,.709926-.012958,1.022448,.191469,1.341993,.384275,2.40567,1.45151,4.269491,1.294122,5.391841-.45245,1.145883-1.78323,.461608-3.54549-1.663057-5.204214-3.107222-2.425811-6.15998-4.934148-9.081793-7.577664-1.005325-.909582-1.899546-2.236767-2.242819-3.532574-1.534969-5.794644-2.960283-11.62451-4.178646-17.492846-.334648-1.611866-.094398-3.483251,.379695-5.088597,.642879-2.176896,.419181-3.913129-1.207482-4.789885-1.754013-.945404-4.003505-.442335-4.738052,1.694295-.833904,2.425616-1.377885,5.167333-1.153518,7.692167,.38609,4.344959,1.464898,8.628375,2.267299,13.016038-2.597029-1.06031-4.398234-2.681442-5.028309-5.478236Zm111.532269,74.892044c17.969356-.853738,35.692596-3.538844,53.080462-8.04643,14.538325-3.76888,28.91444-8.165809,43.347124-12.337467,2.390664-.690999,3.397368-2.343662,2.863447-4.164246-.626773-2.137312-2.424884-2.951675-4.934036-2.190258-1.597278,.484733-3.171956,1.04359-4.765333,1.541727-24.236636,7.577051-48.671179,14.318199-73.989647,17.23936-19.36346,2.234147-38.666895,2.124326-57.857694-1.700788-2.518627-.50201-4.296647,.398348-4.69837,2.321285-.43742,2.093618,.85054,3.690827,3.395863,4.201336,12.421449,2.49152,24.968186,3.541241,37.629956,3.148104,1.97629,0,3.956397,.081035,5.928228-.012623Zm-72.411471-68.767548c4.858379-14.170327,13.124896-26.328851,22.327964-37.898939,10.645659-13.383677,21.507506-26.595308,32.255351-39.897895,1.564423-1.936313,1.464494-4.042387-.113528-5.220989-1.669313-1.246777-3.542664-.868326-5.118596,1.066524-4.79972,5.892844-9.687387,11.717291-14.364104,17.706385-9.817022,12.57192-19.719886,25.085209-29.194331,37.912969-5.334812,7.222997-9.128288,15.401987-11.971225,23.961239-.881597,2.654272,.471668,4.936587,3.796541,4.980169,.528919-.556851,1.969602-1.406882,2.381928-2.609464Zm20.130944,11.210473c4.993949-4.636021,9.509459-9.62175,11.652836-16.313672,.460605-1.437995,1.077652-2.843345,1.772558-4.186149,7.911206-15.287359,18.461617-28.527804,31.177197-40.081979,1.992926-1.810901,2.385119-3.788261,1.082138-5.335868-1.367603-1.624337-3.613835-1.547732-5.592019,.349679-3.179285,3.049457-6.432806,6.042207-9.387014,9.301762-10.45168,11.531869-19.81211,23.792885-25.739279,38.403053-1.256638,3.097568-3.385413,5.879872-5.352061,8.6364-1.177832,1.650851-3.02457,2.828757-4.176264,4.492287-.66534,.961065-.985748,2.601159-.64979,3.683818,.299551,.96537,1.715042,1.58446,2.63809,2.356369,1.13985-.563441,2.003487-.776465,2.573607-1.3057Zm-19.540384,12.124514c1.075548-2.915769,2.107165-5.857036,3.370143-8.692773,5.830947-13.091987,14.12841-24.585958,23.297898-35.486977,4.351042-5.172655,8.870426-10.203388,13.281269-15.32619,1.595495-1.852993,1.625284-3.76169,.205655-5.071473-1.488794-1.373582-3.578277-1.160768-5.187454,.576942-1.238497,1.337454-2.433272,2.715606-3.638747,4.083364-10.202721,11.576287-20.362082,23.230545-27.931534,36.753901-3.760148,6.717754-6.634615,13.942312-9.723864,21.01876-1.131295,2.591364,.410306,4.893882,2.289202,4.908553,2.449518-.02115,3.42692-1.109034,4.037433-2.764107Zm54.986528,14.023779c25.126189-2.573084,47.017945-12.668839,66.425434-28.54522,1.640555-1.342066,1.96662-3.302761,.829278-4.823965-1.115188-1.491665-2.922189-1.784916-4.663871-.612737-1.511561,1.017299-2.932778,2.169916-4.383367,3.276511-14.267575,10.883909-29.857441,18.943367-47.66807,22.202267-4.63071,.847287-9.298204,1.492223-13.945076,2.252859-1.994487,.326481-3.161255,1.435682-3.054443,3.56253,.089423,1.779593,1.493197,3.065453,3.571673,3.100285,.783076-.113388,1.831523-.304271,2.888443-.412532Zm-6.252037-27.956741c2.711184-4.09805,4.909207-8.596955,8.0035-12.368009,7.456565-9.087387,16.190222-16.890977,25.701409-23.814022,2.022882-1.472438,2.475545-3.50011,1.266057-5.072518-1.257614-1.634954-3.206483-1.770244-5.21415-.31075-9.942003,7.227581-19.012649,15.409678-26.977108,24.786288-3.706017,4.363113-7.016692,8.9909-8.978715,14.443082-.945955,2.628552,.433463,4.791501,3.880991,4.74665,.489614-.497858,1.599591-1.324775,2.318016-2.410722Zm-67.644968-11.425475c.972345,1.292923,1.712952,2.883528,2.117517,4.451617,.636707,2.467847,1.910804,3.752954,3.968087,3.380843,2.057312-.372126,3.406299-2.188795,2.619713-4.468545-.998455-2.893838-2.465499-5.651857-3.95159-8.346508-3.662991-6.641972-4.296577-13.346601-.638184-20.160856,1.975537-3.67975,4.160505-7.246488,6.203326-10.890931,1.214811-2.167254,.801412-4.24464-.928831-5.177992-1.784067-.962402-3.70989-.244429-4.923935,1.864139-1.856603,3.224611-3.593311,6.523638-5.569657,9.672634-2.585172,4.119061-3.995424,8.505234-3.68123,12.625381-.101852,6.683897,1.132995,12.194416,4.784784,17.050218Z"/>
    <path class="cls-1" d="M542.985544,457.857997c-.380175,0-.760823-.012521-1.140455,.001811-14.888686,.562437-27.763511,4.794856-36.430201,18.197927-9.914351,15.332607-10.023243,32.591074,.386275,47.608597,4.973235,7.174748,11.322286,12.877809,18.784408,17.339223,11.232713,6.715784,23.338664,10.327407,36.496012,9.302037,17.56927-1.369175,29.920444-10.589704,38.114725-25.925069,8.351114-15.628973,6.512876-32.152585-5.586779-45.054824-13.660162-14.566261-31.051817-20.671389-50.623986-21.469701Zm46.781317-28.261408c2.049503-2.664405,3.919387-5.240017,5.945128-7.686597,1.884452-2.275932,3.77378-4.590835,5.946521-6.576028,4.301693-3.930399,8.686649-4.358539,13.825436-1.626249,1.398937,.743796,2.707925,1.656793,4.291441,2.636437,9.446386-8.22179,17.901461-17.238995,22.978769-28.945786,.805617-1.857485,1.332666-3.889032,1.651431-5.893711,.748399-4.706425-1.543625-9.136869-5.247958-10.279202-2.993122-.923004-6.068784-.921075-8.911592,.445836-11.590546,5.573194-22.718197,11.931531-32.767932,20.025877-5.051624,4.06872-9.701665,8.53948-13.003746,14.214378-4.711799,8.097703-3.565578,15.636243,3.306622,21.980074,.556578,.513785,1.14909,.988613,1.985879,1.704971Zm-25.163628-36.519579c12.275348-.73952,23.923056-3.868362,35.434935-7.563263,2.7128-.870725,5.432843-2.054654,7.787461-3.634215,4.584076-3.075177,5.948165-8.001369,3.207926-12.549673-5.442816-9.034127-13.103445-14.995446-24.158418-15.039703-12.087148-.048387-21.943668,5.286788-30.477579,13.407619-3.44117,3.274594-6.308937,7.002936-7.733224,11.64183-1.752495,5.707839,.285086,10.095196,5.935657,11.858414,3.216673,1.003725,6.661269,1.276858,10.003242,1.878991Zm161.5807,169.300913c-.005348,.159395-.010697,.318818-.016045,.478213-2.809296,0-5.632186-.177892-8.425102,.03613-6.305985,.483227-12.521964,1.494028-18.271399,4.350238-4.387853,2.179799-7.860307,5.279921-9.116562,10.197568-1.621819,6.348552,2.649677,13.564305,11.317801,14.029843,11.772952,.632259,23.436232-.088194,34.679878-3.782941,3.880164-1.27502,7.645364-3.383562,10.942905-5.816409,3.524518-2.600376,3.873562-6.661018,1.734332-10.436159-2.507217-4.424559-6.342867-7.232494-11.294318-8.085488-3.793669-.653513-7.696955-.670785-11.551491-.970994Zm-117.091407-148.805368c-5.400947,.413585-8.686732,4.629151-7.127953,9.934909,1.038388,3.534433,2.752162,6.886572,4.328714,10.242751,1.996882,4.25086,4.571151,8.277601,4.966076,13.117612,.756589,9.272718,9.537087,20.33771,18.393383,23.115686,5.349719,1.67802,9.676677,.062621,12.934411-4.480425,2.667867-3.7205,2.350802-7.532175,.924091-11.483563-2.685696-7.438131-6.899166-14.019926-11.619127-20.286844-5.046108-6.699934-10.503632-13.040171-17.51754-17.789175-1.574128-1.065831-3.511759-1.594826-5.282055-2.37095Zm-189.480618,17.433586c5.650265,.274874,11.942077-3.186797,13.079273-10.252891,.29758-1.849017,1.750434-3.652196,3.040381-5.162394,1.315214-1.539782,3.107377-2.665324,4.648676-4.020069,6.959503-6.117064,14.028205-12.118176,20.797949-18.439109,3.051246-2.848968,5.364984-6.420575,6.107909-10.733444,.954692-5.542308-3.089674-9.670454-8.511096-8.510328-1.978622,.423398-3.944318,1.167431-5.751663,2.087712-9.828538,5.00458-17.992386,12.118336-25.234656,20.33904-1.979416,2.24685-2.81626,4.971062-2.819192,7.988506-.005425,5.584838-1.212443,7.27219-6.489895,9.342652-2.470718,.969295-5.023683,1.769612-7.397321,2.935671-3.200864,1.572458-4.048384,4.029206-2.913786,7.424078,1.440172,4.309219,5.799946,6.976326,11.443421,7.000575Zm255.527987,23.051254c.146972-9.601718-5.626113-13.351913-12.651832-9.864028-1.713022,.850445-3.167561,2.298133-4.588366,3.633546-.926849,.871128-1.612571,2.011462-2.347933,3.071708-6.957554,10.031251-11.830393,21.17984-17.06133,32.125035-1.74138,3.643644-1.56488,7.538791,.170372,11.258998,1.728065,3.704831,4.709097,5.083115,8.392175,3.274392,2.741437-1.346263,5.411338-3.156016,7.57692-5.30073,8.388108-8.30724,14.306048-18.253612,18.239085-29.342324,1.207032-3.403075,1.811412-7.019894,2.270909-8.856598Zm-178.721073-63.452259c.102555,1.437131,.136024,2.883176,.319698,4.30986,.767732,5.962948,4.711228,8.606461,10.488408,6.983207,1.522524-.427792,3.057583-.973264,4.431393-1.74241,11.263647-6.306043,19.662063-15.341522,25.284304-26.942061,.754193-1.556162,1.3202-3.241689,1.713732-4.927905,1.765253-7.563639-1.253442-12.163673-8.89921-13.725503-5.595749-1.143064-10.984412,2.235672-11.404101,7.882456-.379673,5.108012-3.119787,8.201935-6.936132,10.802695-2.944944,2.006922-6.055469,3.775008-8.961038,5.834579-3.926017,2.782892-6.533741,6.357912-6.037056,11.525084Zm-37.969787,54.659522c.045128-.188658,.090242-.377316,.13537-.565974,4.943804,.11793,9.677694-.82614,14.143853-2.946521,8.10227-3.846662,11.851299-10.770451,9.688321-19.392052-1.104478-4.402413-3.203483-8.676868-5.513837-12.622184-2.474124-4.224967-7.593007-5.822552-11.932975-4.579051-4.371237,1.252442-7.256999,5.114802-7.39113,10.374749-.111065,4.355851-2.175249,7.389925-5.521511,9.932291-2.403618,1.826147-4.813825,3.767383-6.753559,6.053914-3.748124,4.418222-2.707229,9.013542,2.647727,11.14572,3.318155,1.321178,6.986566,1.762718,10.49774,2.599109Zm221.283794,104.358638c-.577414,2.595195-1.316008,4.994503-1.612125,7.447184-.532565,4.411049,1.791884,7.316677,6.151324,8.038717,5.756093,.953333,10.330391-1.146184,13.739888-5.697963,3.583657-4.784242,5.389777-10.082382,3.123659-15.998155-1.106999-2.889833-3.392867-4.961493-6.571626-4.740201-2.770631,.192878-3.87671-.909988-5.065719-3.161434-3.423035-6.481762-7.75278-12.352268-13.241253-17.271169-2.60895-2.338219-5.724085-2.814259-8.917163-1.435223-3.1989,1.381571-4.475435,4.09705-4.582878,7.499833-.124631,3.947517,1.224053,7.450667,3.10207,10.796232,3.409218,6.073246,8.07238,10.974764,13.873823,14.522178Zm-152.935488-122.296162c4.467886,.067246,8.209087-1.110903,11.474398-3.521549,7.122549-5.258318,10.806769-12.449,11.101187-21.232015,.173965-5.189541-1.415679-9.848707-6.22981-12.625471-4.856445-2.801166-9.626855-1.670805-13.966391,1.201409-7.803409,5.164832-12.543915,12.560496-14.159271,21.709336-1.536591,8.702802,1.521618,13.020448,9.429226,14.28225,.89721,.143168,1.816802,.146121,2.350663,.18604Zm130.707681,186.492357c3.791496-.661397,8.362898-1.06409,12.684814-2.323009,4.3866-1.277778,4.986522-4.538548,1.724193-7.751572-1.769766-1.742981-3.865428-3.181992-5.922035-4.601727-5.853034-4.040697-10.654254-8.788196-11.967141-16.203012-.375425-2.120242-1.861944-3.394732-4.021899-3.861607-4.206534-.90932-8.322728-.605071-12.294792,1.00392-5.27172,2.135396-7.97945,6.522126-7.687734,12.207554,.435094,8.479045,6.902314,17.009012,15.050408,19.295752,3.771523,1.058491,7.739715,1.41628,12.434187,2.233701Zm-150.282969,15.627858c-2.265519,2.948471-4.621195,5.54414-6.406046,8.486121-1.4249,2.348665-2.50354,5.042054-3.09629,7.7238-.615467,2.784369,.98702,4.494423,3.849425,4.260512,2.527887-.206556,5.260675-.601143,7.442623-1.771228,4.216465-2.26114,8.581782-2.84114,13.206752-2.693863,2.727564,.086884,5.497122,.299207,8.182191-.049668,4.472092-.581114,6.709266-5.163982,4.478081-8.879621-.727576-1.211618-1.668883-2.510121-2.846234-3.195865-3.452355-2.010849-7.071655-3.735278-10.62811-5.566954-.523888-.269818-1.434998-.413558-1.533151-.783687-.687476-2.592465-1.419565-5.205043-1.722061-7.858514-.291131-2.553717-1.203689-4.140924-3.7596-4.29096-2.184455-.128251-4.401712,.302327-6.785831,.500832-.049097-.274721-.191445-1.086264-.33949-1.896777-.635649-3.480419-2.256409-6.420199-4.871042-8.80179-1.69908-1.547707-3.563461-2.224425-5.841989-1.229196-2.29715,1.003391-3.305062,2.820136-3.468122,5.184652-.227785,3.302694,.801981,6.307937,2.417881,9.120274,3.251758,5.659438,5.940295,6.239772,11.175759,2.554915-.161444,.623122-.441557,1.183344-.827331,1.657657-1.044363,1.28399-2.363797,2.403013-3.155179,3.821271-1.463885,2.623386-.400928,4.123681,2.540966,3.911554,.600508-.043289,1.19848-.121649,1.986798-.203464Zm-48.60649-107.693061c-4.06661,2.544413-6.941257,5.586259-8.704895,9.42572-.99468,2.165397-1.974304,4.485454-.401597,6.695505,1.548695,2.176317,4.091973,1.955777,6.293881,1.560577,3.720141-.667692,7.207665-.008413,10.784832,.857061,3.074979,.743991,6.256539,1.450711,9.392525,1.457452,7.089204,.015238,12.365911-6.059597,11.004413-12.545815-.536618-2.556502-1.923925-4.924472-2.771132-7.429913-.435874-1.289032-.84509-2.716956-.735919-4.038273,.516826-6.255038-2.259864-10.023047-8.487919-10.608535-2.823461-.265417-5.727985,.12463-8.578119,.399769-3.934694,.379768-6.122632,2.976523-7.013156,6.520538-.598056,2.380087-.526687,4.928428-.782914,7.705916Zm104.302812,93.283172c-.023455-.27135-.046939-.5427-.070394-.81405-3.822195,.364001-7.730689,.34517-11.44597,1.183177-5.34625,1.205824-7.000411,5.00871-4.898746,10.043132,.348543,.834915,.770267,1.657044,1.275309,2.406133,4.792807,7.108951,11.280139,12.066043,19.434835,14.63093,7.670658,2.412651,14.795241-1.019186,17.983054-8.328202,1.401528-3.213387,1.819769-6.583215,1.348656-10.027281-.967074-7.069617-6.129568-10.803391-13.223452-9.877748-3.443232,.449325-6.934015,.534121-10.403292,.78391Zm168.969893-127.485424c-.229679-.131928-.45933-.263843-.689008-.395757-1.326148,.80802-2.66575,1.594924-3.976103,2.427819-4.830553,3.070357-9.746514,4.968304-15.352765,1.786354-1.75776-.997653-3.676058-.575473-5.467246,.316645-2.510755,1.250548-4.168899,3.2613-5.175865,5.815894-1.582151,4.013718-1.744389,8.140547-.70589,12.304174,2.329854,9.341036,9.208015,13.422292,17.734126,10.151939,2.965433-1.137464,5.544799-1.555618,8.326489,.000752,.0646,.036158,.145551,.042203,.217895,.065407,5.54115,1.775629,6.61174,.861992,5.660015-4.867115-.460221-2.770635-.168923-5.293348,1.176251-7.911134,.752968-1.465335,.897906-3.881943,.198897-5.330397-1.834812-3.802022-2.281689-7.659869-1.956852-11.738228,.069308-.870195,.010056-1.750642,.010056-2.626353Zm-288.412715,156.105053c.908338-.060114,1.830452-.039835,2.72294-.1926,11.0077-1.883879,20.533588-6.778935,28.649105-14.384623,1.524042-1.428286,2.844563-3.194611,3.850483-5.02899,1.938397-3.534795,.897711-6.679237-2.807903-8.190842-2.048278-.835528-4.396489-1.4055-6.586669-1.339313-8.014967,.242073-15.592667,2.533883-22.57798,6.342646-3.673077,2.002743-7.120752,4.627104-10.174366,7.49819-2.955279,2.778574-3.704166,6.477555-2.010602,10.467498,1.718858,4.049527,5.036567,4.905947,8.934992,4.828033Zm-45.323825-9.55425c1.19692-.461248,3.69257-1.15585,5.92519-2.344514,3.547541-1.888671,6.914668-4.115269,10.367085-6.18392,3.753493-2.24905,7.636819-4.007046,12.18395-3.907013,1.396284,.030698,2.855503-.43718,4.201158-.915309,3.868423-1.37444,4.827057-4.204214,2.680598-7.731878-.510043-.838286-1.115328-1.642224-1.792595-2.351339-4.094564-4.287422-9.049267-7.209123-14.81332-8.469852-2.298912-.502866-5.171519-.908651-7.114192,.028163-3.68023,1.774738-7.557978,3.983089-10.113603,7.045967-3.69404,4.427345-6.493544,9.661191-9.28263,14.765171-2.397455,4.387315,1.396305,10.065473,7.758358,10.064525Zm285.587902,17.117011c-.190429-3.457549-1.428855-6.365377-3.674637-8.778809-6.480479-6.964097-12.840561-13.968029-17.119857-22.637334-1.72266-3.489834-5.823032-4.509549-9.759189-3.173078-3.470921,1.178497-5.072906,3.950247-4.648342,8.128499,.099365,.977791,.247451,1.966167,.516464,2.908748,2.756758,9.65874,8.601769,17.344376,15.690472,24.176963,3.29261,3.173607,6.839497,6.07372,11.522771,7.010088,2.698733,.539553,4.90883-.437124,6.043296-2.902564,.682323-1.482746,.966127-3.148815,1.429023-4.732513Zm-288.80344-125.731871c.002807,5.14763,1.566879,7.032596,5.478347,7.780989,1.488622,.284861,2.990198,.502838,4.477023,.796083,2.675514,.527714,4.820852,1.599771,5.577148,4.600278,.502118,1.992102,2.144384,2.998919,4.152095,2.850639,1.71275-.126496,3.499147-.416789,5.072871-1.069105,7.861609-3.258681,10.008047-13.066008,4.557696-20.57027-3.318273-4.568689-7.976525-7.255866-13.319906-8.552168-1.982961-.48111-4.546595-.400298-6.332887,.472836-6.074509,2.969196-8.942193,8.311655-9.662387,13.690717Zm231.017487,82.717285c-6.017444,.139227-9.457138,4.043956-8.09018,9.81482,.670484,2.830583,1.82275,5.659967,3.308099,8.16279,3.943873,6.645279,9.049789,12.200785,16.425862,15.165608,7.726789,3.10586,11.493549-3.327654,10.397665-8.582838-2.126416-10.196816-8.002209-17.691635-16.919651-22.841438-1.528415-.882689-3.405681-1.16131-5.121795-1.718941Zm-239.186203-81.003024c0-.938151,.026241-1.621694-.00436-2.302674-.169181-3.765112-1.676836-5.069967-5.445796-5.041191-5.115457,.039111-8.640226,2.586476-10.937839,6.907381-2.86643,5.390539-3.369108,11.150511-1.822196,17.012076,.878201,3.32771,2.520108,6.366826,6.217135,7.204109,5.850478,1.324967,11.318929,.400827,15.998108-3.636694,5.062488-4.368233,4.795892-10.496608-.836886-14.088146-2.494933-1.590773-3.859627-3.326233-3.168167-6.054861Zm108.240835,31.177301c.334963,3.394454,.426946,5.911121,.858628,8.368093,.871289,4.959126,2.148242,9.808106,5.400251,13.84599,2.301495,2.857659,5.251593,3.749373,8.274007,2.396968,4.216284-1.886665,6.859888-5.003696,6.843202-9.827244-.007842-2.26582-.053192-4.588634-.536939-6.785314-1.676641-7.613488-4.640472-14.658647-10.575962-19.986342-3.678677-3.301998-7.082463-2.370365-8.467458,2.341478-.994959,3.384927-1.318167,6.967301-1.795729,9.646372Zm-74.924049,41.146585c7.820973-.369544,14.753713-2.572993,20.914648-6.688178,2.632628-1.758469,5.018516-4.216611,6.789926-6.846264,1.97897-2.937746,.614478-6.254703-2.79995-8.817474-2.797359-2.099628-5.672912-2.069459-8.272127,.326478-2.860107,2.636395-6.244435,3.972671-10.008541,4.51955-3.231493,.469438-6.50844,.713377-9.693677,1.392769-4.420912,.943026-7.228829,5.307833-6.764708,10.029231,.352715,3.588029,3.090342,5.652223,7.923869,5.971403,.755628,.049891,1.511952,.089169,1.910561,.112485Zm86.074166-149.717028c.023525-.113919,.04705-.227838,.070575-.341771,1.740127-.106579,3.493304-.113515,5.217873-.339125,4.533586-.593051,9.017155-1.431754,12.785906-4.286294,3.245504-2.458266,3.777373-5.761086,1.625761-9.451975-2.121708-3.639591-4.966466-4.473197-8.867007-3.097322-2.236255,.788799-4.73187,1.455474-7.043742,1.282444-4.133424-.309374-8.21275-1.316456-12.321103-1.992854-4.569605-.752362-8.849555,2.066005-10.27497,6.720422-1.135399,3.707408,.664508,6.694516,5.298713,8.754978,.690373,.306951,1.396235,.64446,2.12955,.778394,3.786608,.691635,7.584497,1.321624,11.378445,1.973104Zm-103.634807,13.195833c8.461636-.807894,14.761381-4.709072,19.392542-11.182184,5.297905-7.405024,2.412421-13.695161-6.619331-14.896667-.225438-.030001-.453515-.041242-.680638-.057357-4.346242-.308553-7.603865,1.52921-10.081401,5.016705-1.788841,2.51806-3.410326,5.112587-6.877626,5.868571-3.389364,.739005-4.991509,2.980311-5.076507,6.106813-.10626,3.908754,1.606944,6.959919,4.747623,8.001139,1.781612,.590641,3.68257,.821293,5.195337,1.14298Zm243.362359-20.820282c-.012424,3.582931,.948717,6.111507,2.667839,7.691709,1.763276,1.620803,3.570398,1.584241,5.169485-.205999,.597248-.668667,1.127696-1.454513,1.477048-2.276809,1.276563-3.004574,3.531983-4.598147,6.710074-5.153076,1.476825-.257895,3.000337-.653374,4.31771-1.3409,3.441504-1.79609,3.808043-5.092711,.94139-7.66707-1.622098-1.456658-2.237314-3.259405-1.884564-5.32828,.266032-1.56041,.755363-3.090038,1.235613-4.604749,.595466-1.878127,1.492898-3.687922,1.848545-5.6036,.190986-1.028559-.156053-2.569818-.865174-3.220142-.552343-.506501-2.156195-.264929-3.080983,.134449-1.148115,.495804-2.255058,1.346263-3.071456,2.305836-3.522679,4.140493-7.628149,6.704168-13.294598,7.340188-4.964154,.557158-5.959586,3.890982-3.014405,7.998061,1.775198,2.475593,2.36292,5.013153,1.23046,7.918795-.321968,.826043-.343557,1.769166-.386986,2.011587Zm-252.106469,59.064694c1.428291-.173964,2.8729-.263829,4.281859-.537352,4.608179-.8945,6.750453-4.056171,5.254337-8.523574-2.818509-8.416117-8.459442-14.51761-16.590001-18.036944-4.340991-1.879004-8.614159-.626938-11.409422,2.6245-4.449448,5.175584-2.408047,11.349532,4.24538,12.76272,1.656069,.351772,3.202097,.4854,3.58239,2.7364,1.057421,6.259021,4.294624,8.866863,10.635457,8.97425Zm-13.710123,89.494047c6.102749,.035099,9.188105-2.513074,8.783047-7.612011-.723335-9.105454-5.085435-16.375053-12.881525-21.118792-5.643847-3.434149-11.529185,.184466-11.598377,6.750466-.066578,6.317353,2.228863,11.853136,5.914702,16.870119,2.552453,3.474291,5.889335,5.417755,9.782153,5.110219Zm144.921363,11.050868c.175247,1.786911,.267536,2.999476,.417057,4.204939,.614255,4.952022,1.770226,9.741084,4.857239,13.797575,1.977536,2.598566,4.356626,2.539677,5.708304-.381718,2.823322-6.102106,7.750816-10.007698,13.108334-13.59049,1.256172-.840068,2.467466-1.787357,3.545605-2.842477,1.12076-1.096822,1.019668-2.34198-.234275-3.33303-.708146-.559693-1.46922-1.151337-2.305925-1.433579-5.745298-1.937949-11.473395-3.949495-17.297778-5.621191-3.067375-.880377-5.57611,.673877-6.62493,3.749958-.653603,1.916945-.870565,3.982755-1.173632,5.450013Zm-85.84228-39.050216c-.716211-3.820603-.981755-6.880333-1.884229-9.738967-2.562443-8.116604-10.736048-11.137753-18.127679-6.896434-3.476263,1.994665-4.344425,4.785858-2.227487,8.206469,1.347688,2.177598,3.01467,4.182737,4.711813,6.112802,2.297289,2.612578,3.961638,5.49411,4.928497,8.854244,.560909,1.949342,1.294642,3.936903,2.397942,5.61275,.794453,1.206716,2.35365,2.691467,3.523633,2.651326,1.18763-.040782,2.923787-1.590077,3.359132-2.846238,1.422309-4.103959,2.361123-8.375419,3.318378-11.955954Zm22.976638-94.590756c-.343111-5.474025-5.419931-11.012231-10.996571-11.741125-2.696922-.352524-4.46464,.466847-5.447537,3.002541-.730055,1.883364-1.225111,3.919563-1.439566,5.928796-.521993,4.890111-1.591093,9.518399-4.385137,13.706052-1.06435,1.595202-1.689901,3.560632-2.178062,5.444734-.739833,2.855584,.686501,4.374919,3.630916,4.126133,.74819-.06322,1.514195-.206082,2.2178-.461652,7.260259-2.637119,12.98114-7.171517,16.630428-14.033896,.969776-1.823626,1.328474-3.972212,1.96773-5.971584Zm232.505392,33.280662c-.716002-3.797732-1.017662-7.30754-2.063878-10.579272-2.835175-8.866404-11.03096-9.79539-17.48453-6.683248-4.070315,1.962839-4.912646,4.981926-2.480559,8.758,1.347625,2.092343,3.231047,3.840771,4.567752,5.938658,1.768429,2.775482,3.308544,5.70529,4.809632,8.638969,.89175,1.742842,1.27244,3.786813,2.345788,5.384411,.837986,1.247275,2.406404,2.802698,3.61845,2.776067,1.222298-.026882,3.014405-1.611666,3.490337-2.906046,1.368685-3.722715,2.198537-7.643573,3.197006-11.327539Zm-270.350896-1.624897c6.589775-.274303,8.797714-2.568745,7.615474-8.914094-.687003-3.687435-1.846679-7.363044-3.3423-10.80562-2.209965-5.086875-8.52875-6.572184-13.070951-3.360343-3.374154,2.385895-5.770488,5.58651-7.21481,9.439342-1.793577,4.784451,.665184,10.031,5.591835,11.477156,3.392943,.995926,6.941654,1.461157,10.420751,2.163559Zm148.185385-58.625968c7.787183,.068388,10.076533-2.148767,9.089931-7.98618-.672935-3.981585-1.930945-7.963811-3.575495-11.657151-2.186976-4.911505-8.376102-6.272727-12.769972-3.197132-3.449973,2.414866-5.924765,5.642529-7.34791,9.600004-1.73489,4.8243,.770991,10.088719,5.663636,11.455707,3.481785,.972805,7.107367,1.430877,8.939811,1.784752Zm40.156234,188.30725c-.577164-5.830588-2.443871-12.120112-5.569815-18.024492-1.618393-3.056861-3.985156-4.350182-6.802949-3.863167-2.475851,.427959-4.617365,2.74796-4.817655,5.941067-.527941,8.41751,2.502064,15.453505,8.87223,20.980318,1.615718,1.401823,3.568865,1.62721,5.531484,.605851,1.93114-1.005035,2.891362-2.611491,2.786704-5.639576Z"/>
  </g>
</svg>