<?xml version="1.0" encoding="UTF-8"?>
<svg id="Layer_1" data-name="Layer 1" xmlns="http://www.w3.org/2000/svg" viewBox="0 0 2332.486784 1080">
  <defs>
    <style>
      .cls-1 {
        fill: #efe3d0;
      }
    </style>
  </defs>
  <path class="cls-1" d="M1338.894588,486.147745l22.419694,60.189808c.572037,1.535738,2.744248,1.53572,3.31626-.000027l22.418549-60.18977c.257944-.692534,.919122-1.151821,1.658134-1.151821l29.140837-.00001c1.264383,0,2.120735,1.287769,1.631722,2.453758l-44.598374,106.339018c-.27569,.657347-.918903,1.085076-1.631721,1.085076l-20.555629,.000007c-.712824,0-1.356041-.427736-1.631728-1.08509l-44.597294-106.338989c-.489001-1.165986,.367351-2.453743,1.631727-2.453744l29.139697-.00001c.739002,0,1.400173,.459273,1.658125,1.151793Zm127.455926,106.956585l-.000035-106.339003c0-.977222,.792194-1.769417,1.769417-1.769418l25.761843-.000008c.977222,0,1.769417,.792194,1.769418,1.769417l.000026,80.63428c0,.977222,.792196,1.769417,1.769418,1.769417l31.888856-.00001c.977222,0,1.769417,.792194,1.769418,1.769417l.000007,22.165889c0,.977222-.792194,1.769417-1.769417,1.769418l-61.189533,.00002c-.977222,0-1.769417-.792194-1.769418-1.769417Zm165.11945-110.107678c30.69917-.00001,55.405487,25.372296,55.405497,57.003399,.00001,31.633477-24.70629,57.003425-55.40546,57.003435-30.69917,.00001-55.405487-25.369922-55.405497-57.003399-.00001-31.631103,24.70629-57.003425,55.40546-57.003435Zm.000028,85.773427c14.451487-.000005,23.840854-11.387395,23.840848-28.770018-.000006-17.380249-9.38938-28.767633-23.840867-28.767628-14.4503,.000005-23.839667,11.387395-23.839661,28.767644,.000006,17.382623,9.38938,28.770007,23.83968,28.770002Zm115.512416-7.761218c.496914-.849783,1.604543-1.089791,2.429457-.552604,9.513821,6.195435,18.65827,9.377487,26.120682,9.377484,7.724951-.000003,11.387386-3.395326,11.387385-7.524322-.000001-4.527887-3.595957-7.25839-17.047844-13.051801-21.309803-9.191105-29.567798-18.113914-29.567803-32.09884-.000006-17.313767,15.183963-34.162166,39.822603-34.162174,11.05466-.000004,23.903755,3.356012,31.90398,8.588909,.736944,.48203,.970015,1.455338,.581593,2.245634l-10.10493,20.559768c-.44049,.896234-1.522252,1.231351-2.410137,.774265-6.650715-3.423811-14.325516-5.530736-20.236424-5.530734-6.8595,.000002-10.787862,2.863471-10.787861,6.72654,.000001,3.395322,3.062915,5.59397,16.048241,10.853153,19.577713,7.925577,34.028015,16.050601,34.028022,34.496933,.000007,22.174063-16.715419,35.292358-42.485437,35.292366-16.131209,.000005-31.955245-5.10567-41.438692-13.01385-.65979-.550194-.798106-1.509693-.364449-2.251298l12.121615-20.72943Zm130.486017-.000043c.496913-.849782,1.604543-1.08979,2.429457-.552603,9.513819,6.195435,18.65821,9.377487,26.119495,9.377484,7.726138-.000003,11.387386-3.395326,11.387385-7.524322-.000001-4.527887-3.59477-7.25839-17.047844-13.051801-21.309803-9.191105-29.565424-18.113914-29.565428-32.09884-.000006-17.313767,15.181589-34.162166,39.822603-34.162174,11.053535-.000004,23.903642,3.356012,31.903973,8.588911,.736949,.482027,.97002,1.45534,.581596,2.245638l-10.104932,20.559774c-.440488,.89623-1.522235,1.231346-2.41012,.77427-6.650882-3.423821-14.326795-5.530752-20.23881-5.53075-6.857125,.000002-10.786675,2.863471-10.786674,6.72654,.000001,3.395322,3.062915,5.59397,16.048241,10.853153,19.5789,7.925577,34.029203,16.050601,34.029209,34.496933,.000007,22.174063-16.715419,35.292358-42.486624,35.292366-16.13235,.000005-31.955332-5.10567-41.438697-13.013849-.659786-.550196-.798103-1.509691-.364447-2.251294l12.121618-20.729435Zm175.552112-78.012303c30.700357-.00001,55.405487,25.372296,55.405497,57.003399,.00001,31.633477-24.705103,57.003425-55.40546,57.003435-30.697983,.00001-55.405487-25.369922-55.405497-57.003399-.00001-31.631103,24.707477-57.003425,55.40546-57.003435Zm.000028,85.773427c14.4503-.000005,23.840854-11.387395,23.840848-28.770018-.000006-17.380249-9.390567-28.767633-23.840867-28.767628s-23.840854,11.387395-23.840848,28.767644c.000006,17.382623,9.390567,28.770007,23.840867,28.770002Zm112.201866-83.77426l28.31864-.000009c.730327,0,1.385618,.448705,1.649695,1.129617l20.019893,51.620356c.58412,1.506127,2.715193,1.506165,3.299367,.000059l20.022056-51.620489c.264093-.68088,.919368-1.129558,1.649671-1.129558l28.318687-.000009c.923325,0,1.69143,.709969,1.763951,1.630441l8.378106,106.339001c.081057,1.028816-.731946,1.908393-1.76395,1.908393l-25.713481,.000008c-.939184,0-1.714741-.733767-1.766707-1.671513l-2.621733-47.309739c-.106669-1.924865-2.777928-2.315548-3.431377-.501853l-17.40667,48.313454c-.252853,.701812-.918697,1.169659-1.66467,1.169659l-14.827203,.000005c-.745996,0-1.411856-.467876-1.664692-1.169719l-17.404686-48.313371c-.653383-1.813714-3.324648-1.423134-3.431394,.501722l-2.623661,47.309935c-.052003,.937715-.827546,1.671441-1.766702,1.671441l-25.711175,.000008c-1.032004,0-1.845008-.879576-1.763952-1.908392l8.378037-106.339006c.07252-.920472,.840626-1.630442,1.76395-1.630442Z"/>
</svg>