<?xml version="1.0" encoding="UTF-8"?>
<!--
  Vlossom State Icon: Healthy
  Meaning: Open flower, full petals - balanced, stable
  Visual: Full opacity, open form
  Usage: HealthStatusBadge
-->
<svg xmlns="http://www.w3.org/2000/svg" viewBox="0 0 24 24" fill="none">
  <defs>
    <style>
      .vlossom-icon { fill: none; stroke: #311E6B; stroke-width: 1.5; stroke-linecap: round; stroke-linejoin: round; }
      .vlossom-fill { fill: #311E6B; }
    </style>
  </defs>
  <!-- Full open bloom - healthy state -->
  <circle class="vlossom-fill" cx="12" cy="12" r="2.5"/>
  <!-- Five fully open petals -->
  <path class="vlossom-icon" d="M12 3c1.5 0 2.5 2.5 2.5 4.5S13.5 10 12 10s-2.5-.5-2.5-2.5S10.5 3 12 3z"/>
  <path class="vlossom-icon" d="M19.5 9c.5 1.4-1.5 3.2-3.3 4s-3.3.3-3-.5.7-1.8 2-2.8S19 7.6 19.5 9z"/>
  <path class="vlossom-icon" d="M17 18c-.9 1.2-3.2.8-4.5-.2s-2-2.5-1.2-2.7 2 .2 3.2.8S17.9 16.8 17 18z"/>
  <path class="vlossom-icon" d="M7 18c.9 1.2 3.2.8 4.5-.2s2-2.5 1.2-2.7-2 .2-3.2.8S6.1 16.8 7 18z"/>
  <path class="vlossom-icon" d="M4.5 9c-.5 1.4 1.5 3.2 3.3 4s3.3.3 3-.5-.7-1.8-2-2.8S5 7.6 4.5 9z"/>
</svg>
