<?xml version="1.0" encoding="UTF-8"?>
<!--
  Vlossom Navigation Icon: Calendar
  Meaning: Petal ring / cyclical bloom (rhythm of care)
  Familiar metaphor: Calendar/Time
  Botanical derivation: Petals arranged in cyclical pattern
  Usage: CalendarView, RhythmStrip
-->
<svg xmlns="http://www.w3.org/2000/svg" viewBox="0 0 24 24" fill="none">
  <defs>
    <style>
      .vlossom-icon { fill: none; stroke: #311E6B; stroke-width: 1.5; stroke-linecap: round; stroke-linejoin: round; }
      .vlossom-fill { fill: #311E6B; }
    </style>
  </defs>
  <!-- Center - current moment -->
  <circle class="vlossom-fill" cx="12" cy="12" r="2"/>
  <!-- Cyclical petal ring - representing time/rhythm -->
  <path class="vlossom-icon" d="M12 4c1.2 0 2 1.5 2 3s-.8 2.5-2 2.5S10 8.5 10 7 10.8 4 12 4z"/>
  <path class="vlossom-icon" d="M20 12c0 1.2-1.5 2-3 2s-2.5-.8-2.5-2 .5-2 2.5-2S20 10.8 20 12z"/>
  <path class="vlossom-icon" d="M12 20c-1.2 0-2-1.5-2-3s.8-2.5 2-2.5 2 .5 2 2.5-.8 3-2 3z"/>
  <path class="vlossom-icon" d="M4 12c0-1.2 1.5-2 3-2s2.5.8 2.5 2-.5 2-2.5 2S4 13.2 4 12z"/>
  <!-- Diagonal petals - completing the cycle -->
  <path class="vlossom-icon" d="M17.5 6.5c.8.8.5 2.2-.5 3s-2.2.5-2.2-.2.4-1.3 1-2S16.7 5.7 17.5 6.5z" opacity="0.6"/>
  <path class="vlossom-icon" d="M17.5 17.5c-.8.8-2.2.5-3-.5s-.5-2.2.2-2.2 1.3.4 2 1S18.3 16.7 17.5 17.5z" opacity="0.6"/>
  <path class="vlossom-icon" d="M6.5 17.5c-.8-.8-.5-2.2.5-3s2.2-.5 2.2.2-.4 1.3-1 2S7.3 18.3 6.5 17.5z" opacity="0.6"/>
  <path class="vlossom-icon" d="M6.5 6.5c.8-.8 2.2-.5 3 .5s.5 2.2-.2 2.2-1.3-.4-2-1S5.7 7.3 6.5 6.5z" opacity="0.6"/>
</svg>
