<?xml version="1.0" encoding="UTF-8"?>
<!--
  Vlossom Navigation Icon: Profile
  Meaning: Single flower mark (identity)
  Familiar metaphor: User/Identity
  Botanical derivation: Single flower representing individual
  Usage: ProfileHeader
-->
<svg xmlns="http://www.w3.org/2000/svg" viewBox="0 0 24 24" fill="none">
  <defs>
    <style>
      .vlossom-icon { fill: none; stroke: #311E6B; stroke-width: 1.5; stroke-linecap: round; stroke-linejoin: round; }
      .vlossom-fill { fill: #311E6B; }
    </style>
  </defs>
  <!-- Single flower representing identity -->
  <!-- Center - core self -->
  <circle class="vlossom-fill" cx="12" cy="10" r="2"/>
  <!-- Five petals - personal growth stages -->
  <path class="vlossom-icon" d="M12 4c.8 0 1.5 1.2 1.5 2.5S12.8 8 12 8s-1.5-.3-1.5-1.5S11.2 4 12 4z"/>
  <path class="vlossom-icon" d="M16.5 7.5c.4.7-.1 1.9-1 2.6s-1.9.7-1.8 0 .6-1.2 1.2-1.8S16.1 6.8 16.5 7.5z"/>
  <path class="vlossom-icon" d="M15.5 13c-.4.7-1.5.9-2.5.6s-1.5-.9-1-.9 1.3-.1 2-.2 1.9-.2 1.5.5z"/>
  <path class="vlossom-icon" d="M8.5 13c.4.7 1.5.9 2.5.6s1.5-.9 1-.9-1.3-.1-2-.2-1.9-.2-1.5.5z"/>
  <path class="vlossom-icon" d="M7.5 7.5c-.4.7.1 1.9 1 2.6s1.9.7 1.8 0-.6-1.2-1.2-1.8S7.9 6.8 7.5 7.5z"/>
  <!-- Stem - grounding identity -->
  <path class="vlossom-icon" d="M12 14v6"/>
  <path class="vlossom-icon" d="M10 17c0 0 1.5-1 2-1s2 1 2 1" opacity="0.5"/>
</svg>
